<svg xmlns="http://www.w3.org/2000/svg" width="12.097" height="14" viewBox="0 0 12.097 14">
  <g id="user" transform="translate(-116.061 -54.444)">
    <g id="Group_61289" data-name="Group 61289" transform="translate(118.477 54.444)">
      <g id="XMLID_17_" transform="translate(0 0)">
        <path id="XMLID_21_" d="M280.195,58.073a3.207,3.207,0,0,1-.026.4c.008-.053.015-.109.021-.162a3.073,3.073,0,0,1-.211.772c.02-.049.041-.1.061-.147a3.013,3.013,0,0,1-.4.674l.1-.124a3.11,3.11,0,0,1-.535.535l.124-.1a3.082,3.082,0,0,1-.674.4l.147-.061a3.075,3.075,0,0,1-.772.211l.162-.021a3.089,3.089,0,0,1-.805,0l.162.021a3.075,3.075,0,0,1-.772-.211l.147.061a3.013,3.013,0,0,1-.674-.4l.124.1a3.107,3.107,0,0,1-.535-.535l.1.124a3.083,3.083,0,0,1-.4-.674c.02.049.041.1.061.147a3.075,3.075,0,0,1-.211-.772c.008.053.015.109.021.162a3.089,3.089,0,0,1,0-.805c-.008.053-.015.109-.021.162a3.075,3.075,0,0,1,.211-.772c-.02.049-.041.1-.061.147a3.013,3.013,0,0,1,.4-.674l-.1.124a3.108,3.108,0,0,1,.535-.535l-.124.1a3.083,3.083,0,0,1,.674-.4l-.147.061a3.075,3.075,0,0,1,.772-.211l-.162.021a3.089,3.089,0,0,1,.805,0l-.162-.021a3.075,3.075,0,0,1,.772.211l-.147-.061a3.014,3.014,0,0,1,.674.4l-.124-.1a3.111,3.111,0,0,1,.535.535l-.1-.124a3.083,3.083,0,0,1,.4.674c-.02-.049-.041-.1-.061-.147a3.073,3.073,0,0,1,.211.772c-.008-.053-.015-.109-.021-.162a3.251,3.251,0,0,1,.026.4.611.611,0,1,0,1.223,0,3.6,3.6,0,0,0-.645-2.062,4.169,4.169,0,0,0-.384-.469,4.024,4.024,0,0,0-.458-.394,3.556,3.556,0,0,0-.937-.5,3.636,3.636,0,0,0-3.972,1.077,4.161,4.161,0,0,0-.349.483,3.938,3.938,0,0,0-.261.543,3.517,3.517,0,0,0-.241,1.084,3.615,3.615,0,0,0,2.08,3.518,4.231,4.231,0,0,0,.567.214,4.149,4.149,0,0,0,.61.11,3.572,3.572,0,0,0,1.111-.058,3.634,3.634,0,0,0,2.821-2.922,4.31,4.31,0,0,0,.058-.627.611.611,0,0,0-1.223,0Z" transform="translate(-274.16 -54.444)" fill="#acacac"/>
      </g>
    </g>
    <g id="XMLID_3_" transform="translate(116.061 60.625)">
      <g id="XMLID_14_" transform="translate(0 0)">
        <path id="XMLID_1_" d="M117.687,459.046a4.334,4.334,0,0,0-1.343,1.842,4.42,4.42,0,0,0-.283,1.629v2.221c0,.092,0,.183,0,.275a1.8,1.8,0,0,0,.544,1.178,1.854,1.854,0,0,0,1.291.494h8.221c.1,0,.2,0,.3,0a1.775,1.775,0,0,0,1.719-1.671c.023-.258,0-.524,0-.783v-1.291a8.955,8.955,0,0,0-.02-.906,4.324,4.324,0,0,0-1.588-2.973.667.667,0,0,0-.433-.179.628.628,0,0,0-.433.179.612.612,0,0,0-.179.432.59.59,0,0,0,.179.433,3.856,3.856,0,0,1,.659.662l-.1-.124a3.8,3.8,0,0,1,.484.831c-.02-.049-.041-.1-.061-.147a3.83,3.83,0,0,1,.254.928c-.008-.054-.015-.109-.021-.162a9.067,9.067,0,0,1,.035,1.206v1.49a3.945,3.945,0,0,1-.009.446c.008-.053.015-.108.021-.162a1.248,1.248,0,0,1-.078.3c.02-.049.041-.1.061-.147a1.223,1.223,0,0,1-.15.26l.1-.124a1.3,1.3,0,0,1-.225.225l.124-.1a1.291,1.291,0,0,1-.26.15l.147-.061a1.25,1.25,0,0,1-.3.078l.162-.021a2.944,2.944,0,0,1-.348.009h-7.322c-.335,0-.671,0-1.006,0a1.31,1.31,0,0,1-.154-.009l.162.021a1.25,1.25,0,0,1-.3-.078l.147.061a1.22,1.22,0,0,1-.26-.15l.124.1a1.3,1.3,0,0,1-.225-.225l.1.124a1.291,1.291,0,0,1-.15-.26c.02.049.041.1.061.147a1.248,1.248,0,0,1-.078-.3c.008.054.015.109.021.162a3.115,3.115,0,0,1-.009-.377V462.59a5.013,5.013,0,0,1,.035-.677c-.008.053-.015.109-.021.162a3.762,3.762,0,0,1,.254-.928c-.02.049-.041.1-.061.147a3.8,3.8,0,0,1,.484-.831l-.1.124a3.822,3.822,0,0,1,.676-.676.609.609,0,0,0,.179-.432.628.628,0,0,0-.179-.433.612.612,0,0,0-.433-.179l-.162.021A.6.6,0,0,0,117.687,459.046Z" transform="translate(-116.06 -458.867)" fill="#acacac"/>
      </g>
    </g>
  </g>
</svg>
