<svg xmlns="http://www.w3.org/2000/svg" width="12.869" height="11.827" viewBox="0 0 12.869 11.827">
  <path id="Path_153755" data-name="Path 153755" d="M4.732,4.732a5.916,5.916,0,0,1,7.139-.941.657.657,0,1,1-.658,1.138,4.6,4.6,0,1,0,0,7.97.657.657,0,1,1,.658,1.138,5.914,5.914,0,0,1-7.139-9.3Zm8.316,1.746a.657.657,0,0,1,.929,0L15.22,7.721c.117.117.231.231.32.336a1.329,1.329,0,0,1,.264.451,1.314,1.314,0,0,1,0,.812,1.328,1.328,0,0,1-.264.451c-.089.1-.2.219-.32.336L13.978,11.35a.657.657,0,0,1-.929-.929l.85-.85H8.914a.657.657,0,1,1,0-1.314H13.9l-.85-.85A.657.657,0,0,1,13.048,6.478Z" transform="translate(-3 -3)" fill="red" fill-rule="evenodd"/>
</svg>
