<svg xmlns="http://www.w3.org/2000/svg" width="13" height="14.028" viewBox="0 0 13 14.028">
  <g id="_39-Notification" data-name="39-Notification" transform="translate(-3.02 -2)">
    <path id="Path_27" data-name="Path 27" d="M15.82,12.257a8.281,8.281,0,0,0-.5-.766A4.63,4.63,0,0,1,14.4,9.554L14.193,6.6C14.068,4.313,12.731,2,10.073,2H8.962c-2.658,0-4,2.313-4.14,4.6l-.21,2.958A4.7,4.7,0,0,1,3.7,11.511c-.17.26-.34.5-.456.726a1.111,1.111,0,0,0-.1,1.166,1.2,1.2,0,0,0,1.1.611H8.106a1.5,1.5,0,1,0,2.823,0h3.864a1.2,1.2,0,0,0,1.1-.631,1.071,1.071,0,0,0-.075-1.126Zm-5.8,2.258a.5.5,0,1,1-.5-.5A.5.5,0,0,1,10.018,14.514Zm5.006-1.587c0,.04-.085.085-.21.085H4.241c-.125,0-.19-.045-.21-.085s0-.1.05-.175c.135-.23.29-.471.451-.711A5.252,5.252,0,0,0,5.608,9.624l.215-2.958C5.928,4.973,6.814,3,8.962,3h1.111c2.147,0,3.033,1.972,3.139,3.669l.215,2.953a5.092,5.092,0,0,0,1.1,2.418c.16.24.315.5.476.756A.125.125,0,0,1,15.024,12.928Z" transform="translate(0 0)"/>
  </g>
</svg>
