<svg xmlns="http://www.w3.org/2000/svg" width="12.869" height="12.333" viewBox="0 0 12.869 12.333">
  <g id="Group_61289" data-name="Group 61289" transform="translate(0 -10.667)">
    <g id="Group_61291" data-name="Group 61291" transform="translate(0 19.246)">
      <g id="Group_61290" data-name="Group 61290">
        <path id="Path_153755" data-name="Path 153755" d="M12.333,353.341H10.9a1.864,1.864,0,0,0-3.579,0H.536a.536.536,0,0,0,0,1.072h6.79a1.864,1.864,0,0,0,3.579,0h1.428a.536.536,0,0,0,0-1.072Zm-3.217,1.341a.8.8,0,1,1,.8-.8A.805.805,0,0,1,9.116,354.681Z" transform="translate(0 -352)" fill="#acacac"/>
      </g>
    </g>
    <g id="Group_61293" data-name="Group 61293" transform="translate(0 10.667)">
      <g id="Group_61292" data-name="Group 61292">
        <path id="Path_153756" data-name="Path 153756" d="M12.333,12.008H10.9a1.864,1.864,0,0,0-3.579,0H.536a.536.536,0,0,0,0,1.072h6.79a1.864,1.864,0,0,0,3.579,0h1.428a.536.536,0,0,0,0-1.072ZM9.116,13.348a.8.8,0,1,1,.8-.8A.805.805,0,0,1,9.116,13.348Z" transform="translate(0 -10.667)" fill="#acacac"/>
      </g>
    </g>
    <g id="Group_61295" data-name="Group 61295" transform="translate(0 14.957)">
      <g id="Group_61294" data-name="Group 61294">
        <path id="Path_153757" data-name="Path 153757" d="M12.333,182.675H5.543a1.864,1.864,0,0,0-3.579,0H.536a.536.536,0,1,0,0,1.072H1.964a1.864,1.864,0,0,0,3.579,0h6.79a.536.536,0,0,0,0-1.072Zm-8.579,1.341a.8.8,0,1,1,.8-.8A.805.805,0,0,1,3.753,184.015Z" transform="translate(0 -181.334)" fill="#acacac"/>
      </g>
    </g>
  </g>
</svg>
