<svg xmlns="http://www.w3.org/2000/svg" width="14.605" height="10.406" viewBox="0 0 14.605 10.406">
  <path id="Path_152668" data-name="Path 152668" d="M.941,9.73a.584.584,0,0,0,0,.419,7.78,7.78,0,0,0,14.527,0,.584.584,0,0,0,0-.419,7.78,7.78,0,0,0-14.527,0Zm1.177.21a6.609,6.609,0,0,1,12.172,0,6.609,6.609,0,0,1-12.172,0ZM8.2,7.211A2.628,2.628,0,1,0,10.833,9.84,2.63,2.63,0,0,0,8.2,7.211Zm0,1.17A1.458,1.458,0,1,1,6.746,9.84,1.458,1.458,0,0,1,8.2,8.382Z" transform="translate(-0.902 -4.737)" fill="#0023fc" fill-rule="evenodd"/>
</svg>
