<svg xmlns="http://www.w3.org/2000/svg" width="12.589" height="13.269" viewBox="0 0 12.589 13.269">
  <g id="Group_62362" data-name="Group 62362" transform="translate(-2.75 -2.25)">
    <path id="Path_119817" data-name="Path 119817" d="M7.894,2.25h2.3a2.54,2.54,0,0,1,.4.019,1.531,1.531,0,0,1,1.117.8,2.546,2.546,0,0,1,.144.37l.076.228.02.058a.851.851,0,0,0,.778.561h2.1a.51.51,0,0,1,0,1.021H3.26a.51.51,0,0,1,0-1.021h2.1a.851.851,0,0,0,.778-.561l.02-.058.076-.228a2.541,2.541,0,0,1,.144-.37,1.531,1.531,0,0,1,1.117-.8A2.541,2.541,0,0,1,7.894,2.25ZM7.008,4.291A1.876,1.876,0,0,0,7.1,4.077c.008-.022.016-.046.026-.077L7.2,3.8a2.119,2.119,0,0,1,.09-.251.51.51,0,0,1,.372-.268,2.118,2.118,0,0,1,.267-.006h2.238a2.119,2.119,0,0,1,.267.006.511.511,0,0,1,.372.268,2.12,2.12,0,0,1,.09.251l.068.2.026.077a1.88,1.88,0,0,0,.093.214Z" fill="#9e9e9e" fill-rule="evenodd"/>
    <path id="Path_119818" data-name="Path 119818" d="M5.436,8.226a.51.51,0,0,0-1.018.068l.315,4.73a18.026,18.026,0,0,0,.215,2.131,2.526,2.526,0,0,0,.712,1.432,2.526,2.526,0,0,0,1.476.615,18.03,18.03,0,0,0,2.141.073h.6a18.032,18.032,0,0,0,2.141-.073,2.526,2.526,0,0,0,1.476-.615,2.526,2.526,0,0,0,.712-1.432,18.021,18.021,0,0,0,.215-2.131l.315-4.73a.51.51,0,0,0-1.018-.068L13.4,12.921a17.623,17.623,0,0,1-.2,2.035,1.53,1.53,0,0,1-.408.886,1.531,1.531,0,0,1-.912.348,17.64,17.64,0,0,1-2.044.065H9.314a17.64,17.64,0,0,1-2.044-.065,1.53,1.53,0,0,1-.912-.348,1.53,1.53,0,0,1-.408-.886,17.637,17.637,0,0,1-.2-2.035Z" transform="translate(-0.533 -1.757)" fill="#9e9e9e"/>
    <path id="Path_119819" data-name="Path 119819" d="M9.21,10.252a.51.51,0,0,1,.559.457l.34,3.4a.51.51,0,1,1-1.016.1l-.34-3.4a.51.51,0,0,1,.457-.559Z" transform="translate(-1.917 -2.556)" fill="#9e9e9e"/>
    <path id="Path_119820" data-name="Path 119820" d="M14.151,10.252a.51.51,0,0,1,.457.559l-.34,3.4a.51.51,0,1,1-1.016-.1l.34-3.4a.51.51,0,0,1,.559-.457Z" transform="translate(-3.355 -2.556)" fill="#9e9e9e"/>
  </g>
</svg>
