<svg id="Icon" xmlns="http://www.w3.org/2000/svg" width="13.049" height="14.388" viewBox="0 0 13.049 14.388">
  <path id="Path_133117" data-name="Path 133117" d="M15.3,3.759v9.369a2.51,2.51,0,0,1-2.509,2.509H4.759A2.51,2.51,0,0,1,2.25,13.128V3.759A2.51,2.51,0,0,1,4.759,1.25h8.03A2.51,2.51,0,0,1,15.3,3.759Zm-1,0A1.505,1.505,0,0,0,12.79,2.254H4.759A1.505,1.505,0,0,0,3.254,3.759v9.369a1.505,1.505,0,0,0,1.506,1.506h8.03A1.505,1.505,0,0,0,14.3,13.128Z" transform="translate(-2.25 -1.25)" fill="#a5a5a5" fill-rule="evenodd"/>
  <path id="Path_133118" data-name="Path 133118" d="M10.1,5.25a.5.5,0,1,1,0,1H6.752a.5.5,0,0,1,0-1Z" transform="translate(-3.573 -2.573)" fill="#a5a5a5" fill-rule="evenodd"/>
  <path id="Path_133119" data-name="Path 133119" d="M13.444,9.25a.5.5,0,0,1,0,1H6.752a.5.5,0,0,1,0-1Z" transform="translate(-3.573 -3.896)" fill="#a5a5a5" fill-rule="evenodd"/>
  <path id="Path_133120" data-name="Path 133120" d="M13.444,13.25a.5.5,0,0,1,0,1H6.752a.5.5,0,0,1,0-1Z" transform="translate(-3.573 -5.22)" fill="#a5a5a5" fill-rule="evenodd"/>
  <path id="Path_133121" data-name="Path 133121" d="M13.444,17.25a.5.5,0,1,1,0,1H6.752a.5.5,0,0,1,0-1Z" transform="translate(-3.573 -6.543)" fill="#a5a5a5" fill-rule="evenodd"/>
</svg>
