<svg xmlns="http://www.w3.org/2000/svg" width="15.349" height="15.347" viewBox="0 0 15.349 15.347">
  <g id="Group_61307" data-name="Group 61307" transform="translate(-41.7 -41.6)">
    <path id="Path_153773" data-name="Path 153773" d="M49.372,56.947a7.613,7.613,0,0,1-3.418-.8.642.642,0,0,0-.443-.058l-1.589.426a1.464,1.464,0,0,1-1.792-1.792l.426-1.589a.632.632,0,0,0-.058-.443,7.69,7.69,0,1,1,6.874,4.257ZM45.653,55a1.764,1.764,0,0,1,.782.188,6.543,6.543,0,0,0,2.94.689,6.6,6.6,0,1,0-6.6-6.6,6.528,6.528,0,0,0,.689,2.94,1.7,1.7,0,0,1,.133,1.2L43.167,55a.386.386,0,0,0,.1.379.381.381,0,0,0,.379.1l1.589-.426A1.717,1.717,0,0,1,45.653,55Z" transform="translate(0 0)" fill="#a5a5a5"/>
    <path id="Path_153774" data-name="Path 153774" d="M375.535,248.479a.536.536,0,0,1-.535-.535v-5.709a.535.535,0,1,1,1.071,0v5.711A.535.535,0,0,1,375.535,248.479Z" transform="translate(-326.163 -195.815)" fill="#a5a5a5"/>
    <path id="Path_153775" data-name="Path 153775" d="M242.235,312.227a.536.536,0,0,1-.535-.535v-2.856a.535.535,0,0,1,1.071,0v2.854A.536.536,0,0,1,242.235,312.227Z" transform="translate(-195.717 -260.989)" fill="#a5a5a5"/>
    <path id="Path_153776" data-name="Path 153776" d="M508.835,312.227a.536.536,0,0,1-.535-.535v-2.856a.535.535,0,1,1,1.071,0v2.854A.536.536,0,0,1,508.835,312.227Z" transform="translate(-456.609 -260.989)" fill="#a5a5a5"/>
  </g>
</svg>
