<svg xmlns="http://www.w3.org/2000/svg" width="14" height="14" viewBox="0 0 9.93 6.672">
  <path id="Path_152485" data-name="Path 152485" d="M28.133,100.208a4.9,4.9,0,0,1-8.563,0,.365.365,0,0,1,0-.369,4.9,4.9,0,0,1,8.563,0A.36.36,0,0,1,28.133,100.208Zm.553-.677a5.531,5.531,0,0,0-9.668,0,.99.99,0,0,0,0,.984,5.53,5.53,0,0,0,9.668,0A.99.99,0,0,0,28.686,99.532Zm-4.833,1.791a1.3,1.3,0,1,0-1.3-1.3A1.3,1.3,0,0,0,23.853,101.322Zm0-3.23a1.932,1.932,0,1,0,1.931,1.932A1.934,1.934,0,0,0,23.853,98.092Z" transform="translate(-18.887 -96.688)" fill="#acacac" fill-rule="evenodd"/>
</svg>