<svg xmlns="http://www.w3.org/2000/svg" width="15.083" height="14.293" viewBox="0 0 15.083 14.293">
  <path id="image-upload" d="M16.714,8.424A.579.579,0,0,0,16.136,9v1.69L13.041,7.6a1.389,1.389,0,0,0-1.914,0L7.454,11.271l-.586-.586a1.389,1.389,0,0,0-1.914,0L3.4,12.235V5.916C3.4,4.7,3.922,4.18,5.139,4.18h6.174a.579.579,0,1,0,0-1.158H5.139A2.611,2.611,0,0,0,2.245,5.916v7.717a2.611,2.611,0,0,0,2.894,2.894H14.4a2.611,2.611,0,0,0,2.894-2.894V9A.579.579,0,0,0,16.714,8.424ZM14.4,15.369H5.139c-1.136,0-1.658-.463-1.723-1.51L5.772,11.5a.168.168,0,0,1,.278,0l.725.725a.989.989,0,0,0,1.359,0l3.812-3.812a.168.168,0,0,1,.278,0l3.913,3.913v1.3C16.136,14.85,15.616,15.369,14.4,15.369ZM13.99,4.4a.578.578,0,0,1,0-.818L15.148,2.42a.58.58,0,0,1,.818,0l1.158,1.158a.579.579,0,1,1-.818.818l-.17-.169V5.916a.579.579,0,1,1-1.158,0V4.227l-.17.169a.578.578,0,0,1-.818,0Zm-7.308,2.1a.965.965,0,1,1-.965.965A.965.965,0,0,1,6.682,6.495Z" transform="translate(-2.227 -2.251)" fill="#fff"/>
</svg>