<svg xmlns="http://www.w3.org/2000/svg" width="12.587" height="12.587" viewBox="0 0 12.587 12.587">
  <g id="Group_62363" data-name="Group 62363" transform="translate(-0.001 0)">
    <path id="Path_152655" data-name="Path 152655" d="M10.744,1.844a6.292,6.292,0,1,0,0,8.9A6.289,6.289,0,0,0,10.744,1.844ZM6.294,11.552a5.259,5.259,0,1,1,5.259-5.259A5.265,5.265,0,0,1,6.294,11.552Z" transform="translate(0 0)" fill="#9e9e9e"/>
    <path id="Path_152656" data-name="Path 152656" d="M277.907,160.057a.517.517,0,0,0-.517.517v3.675a.517.517,0,1,0,1.034,0v-3.675A.517.517,0,0,0,277.907,160.057Z" transform="translate(-270.563 -156.118)" fill="#9e9e9e"/>
    <path id="Path_152657" data-name="Path 152657" d="M192.574,160.057a.517.517,0,0,0-.517.517v3.675a.517.517,0,0,0,1.034,0v-3.675A.517.517,0,0,0,192.574,160.057Z" transform="translate(-187.33 -156.118)" fill="#9e9e9e"/>
  </g>
</svg>
