<svg xmlns="http://www.w3.org/2000/svg" width="15.849" height="14.784" viewBox="0 0 15.849 14.784">
  <g id="Webpage" transform="translate(-1.1 -2.101)">
    <path id="Path_153768" data-name="Path 153768" d="M9.908,13.961H3.084a1.027,1.027,0,0,1-1.026-1.026V6.43H14.944v3.692a.479.479,0,0,0,.957,0V4.08A1.981,1.981,0,0,0,13.923,2.1H3.079A1.981,1.981,0,0,0,1.1,4.08v8.855a1.986,1.986,0,0,0,1.984,1.984H9.908a.479.479,0,1,0,0-.957ZM3.079,3.058H13.923A1.022,1.022,0,0,1,14.944,4.08V5.472H2.057V4.08A1.022,1.022,0,0,1,3.079,3.058Z" fill="#a4a4a4"/>
    <circle id="Ellipse_3193" data-name="Ellipse 3193" cx="0.428" cy="0.428" r="0.428" transform="translate(3.273 3.834)" fill="#a4a4a4"/>
    <circle id="Ellipse_3194" data-name="Ellipse 3194" cx="0.428" cy="0.428" r="0.428" transform="translate(4.779 3.834)" fill="#a4a4a4"/>
    <circle id="Ellipse_3195" data-name="Ellipse 3195" cx="0.428" cy="0.428" r="0.428" transform="translate(6.286 3.834)" fill="#a4a4a4"/>
    <path id="Path_153769" data-name="Path 153769" d="M24.5,19.118l-4.586-1.4a.956.956,0,0,0-1.193,1.193l1.4,4.586a.941.941,0,0,0,.9.677h.015a.942.942,0,0,0,.905-.651l.652-1.938,1.939-.653a.955.955,0,0,0-.028-1.819Zm-2.217,1.566a.962.962,0,0,0-.6.6l-.65,1.939L19.64,18.64l4.584,1.392Z" transform="translate(-8.231 -7.294)" fill="#a4a4a4"/>
  </g>
</svg>
