<svg xmlns="http://www.w3.org/2000/svg" width="12.808" height="13.5" viewBox="0 0 12.808 13.5">
  <g id="Group_61085" data-name="Group 61085" transform="translate(-2.75 -2.25)">
    <path id="Path_151384" data-name="Path 151384" d="M7.983,2.25h2.341a2.584,2.584,0,0,1,.4.02,1.558,1.558,0,0,1,1.136.819,2.59,2.59,0,0,1,.146.377l.077.232.02.059a.865.865,0,0,0,.792.571h2.139a.519.519,0,1,1,0,1.038H3.269a.519.519,0,0,1,0-1.038H5.409A.865.865,0,0,0,6.2,3.756L6.22,3.7,6.3,3.465a2.585,2.585,0,0,1,.146-.377A1.558,1.558,0,0,1,7.58,2.269a2.585,2.585,0,0,1,.4-.02Zm-.9,2.077a1.908,1.908,0,0,0,.094-.218c.008-.023.016-.047.027-.078l.069-.207a2.156,2.156,0,0,1,.092-.256.519.519,0,0,1,.379-.273,2.155,2.155,0,0,1,.272-.006h2.277a2.156,2.156,0,0,1,.272.006.519.519,0,0,1,.379.273,2.156,2.156,0,0,1,.092.256l.069.207.027.078a1.913,1.913,0,0,0,.094.218Z" fill="#e1003e" fill-rule="evenodd"/>
    <path id="Path_151385" data-name="Path 151385" d="M5.454,8.235A.519.519,0,0,0,4.418,8.3l.321,4.813a18.339,18.339,0,0,0,.219,2.168,2.57,2.57,0,0,0,.724,1.457,2.57,2.57,0,0,0,1.5.626,18.344,18.344,0,0,0,2.178.074h.608a18.345,18.345,0,0,0,2.178-.074,2.57,2.57,0,0,0,1.5-.626,2.57,2.57,0,0,0,.724-1.457,18.335,18.335,0,0,0,.219-2.168L14.916,8.3a.519.519,0,0,0-1.036-.069l-.318,4.776a17.93,17.93,0,0,1-.2,2.071,1.557,1.557,0,0,1-.415.9,1.557,1.557,0,0,1-.927.355,17.946,17.946,0,0,1-2.08.066H9.4a17.947,17.947,0,0,1-2.08-.066,1.557,1.557,0,0,1-.927-.355,1.557,1.557,0,0,1-.415-.9,17.944,17.944,0,0,1-.2-2.071Z" transform="translate(-0.513 -1.692)" fill="#e1003e"/>
    <path id="Path_151386" data-name="Path 151386" d="M9.218,10.253a.519.519,0,0,1,.568.465l.346,3.462a.519.519,0,1,1-1.033.1l-.346-3.462A.519.519,0,0,1,9.218,10.253Z" transform="translate(-1.846 -2.462)" fill="#e1003e"/>
    <path id="Path_151387" data-name="Path 151387" d="M14.167,10.253a.519.519,0,0,1,.465.568l-.346,3.462a.519.519,0,0,1-1.033-.1l.346-3.462a.519.519,0,0,1,.568-.465Z" transform="translate(-3.231 -2.462)" fill="#e1003e"/>
  </g>
</svg>