<svg xmlns="http://www.w3.org/2000/svg" width="18.038" height="12.642" viewBox="0 0 18.038 12.642">
  <g id="Group_61160" data-name="Group 61160" transform="translate(-2.5 -16.709)">
    <path id="Path_151411" data-name="Path 151411" d="M34.578,28.23l4.215-10.994a.822.822,0,0,1,1.062-.473l.01,0a.822.822,0,0,1,.473,1.062L36.123,28.823a.822.822,0,0,1-1.062.473l-.01,0A.822.822,0,0,1,34.578,28.23Z" transform="translate(-25.943)" fill="#5c9ffc"/>
    <path id="Path_151412" data-name="Path 151412" d="M73.1,37.11h0a.822.822,0,0,1,0-1.163l2.453-2.453L73.1,31.042a.822.822,0,0,1,0-1.163h0a.822.822,0,0,1,1.163,0L77.3,32.914a.822.822,0,0,1,0,1.163L74.263,37.11A.822.822,0,0,1,73.1,37.11Z" transform="translate(-57 -10.475)" fill="#5c9ffc"/>
    <path id="Path_151413" data-name="Path 151413" d="M5.775,37.11,2.741,34.076a.822.822,0,0,1,0-1.163l3.034-3.034a.822.822,0,0,1,1.163,0h0a.822.822,0,0,1,0,1.163L4.485,33.495l2.453,2.453a.822.822,0,0,1,0,1.163h0A.822.822,0,0,1,5.775,37.11Z" transform="translate(0 -10.475)" fill="#5c9ffc"/>
  </g>
</svg>