<svg xmlns="http://www.w3.org/2000/svg" width="14.912" height="12.138" viewBox="0 0 14.912 12.138">
  <path id="Path_150956" data-name="Path 150956" d="M14.948,3.25H2.464A1.215,1.215,0,0,0,1.25,4.464V5.851A1.215,1.215,0,0,0,2.464,7.065H14.948a1.215,1.215,0,0,0,1.214-1.214V4.464A1.215,1.215,0,0,0,14.948,3.25Zm.173,2.6a.174.174,0,0,1-.173.173H2.464a.174.174,0,0,1-.173-.173V4.464a.174.174,0,0,1,.173-.173H14.948a.174.174,0,0,1,.173.173Zm.347,3.468a.52.52,0,0,1-.52.52H2.464a.52.52,0,1,1,0-1.04H14.948A.52.52,0,0,1,15.469,9.319Zm0,2.774a.52.52,0,0,1-.52.52H2.464a.52.52,0,0,1,0-1.04H14.948A.52.52,0,0,1,15.469,12.093Zm0,2.774a.52.52,0,0,1-.52.52H2.464a.52.52,0,1,1,0-1.04H14.948A.52.52,0,0,1,15.469,14.868Z" transform="translate(-1.25 -3.25)" fill="#a5a5a5"/>
</svg>
