<svg xmlns="http://www.w3.org/2000/svg" width="12.938" height="12.291" viewBox="0 0 12.938 12.291">
  <g id="Group_38313" data-name="Group 38313" transform="translate(-2 -2)">
    <path id="Path_120765" data-name="Path 120765" d="M14.291,19H2.647a.647.647,0,1,0,0,1.294H14.291a.647.647,0,1,0,0-1.294Z" transform="translate(0 -6.002)" fill="#9e9e9e"/>
    <path id="Path_120766" data-name="Path 120766" d="M9.88,2a.647.647,0,0,0-.647.647V9.5L7.1,7.363a.65.65,0,0,0-.919.919l3.235,3.235a.647.647,0,0,0,.919,0l3.235-3.235a.65.65,0,0,0-.919-.919L10.527,9.5V2.647A.647.647,0,0,0,9.88,2Z" transform="translate(-1.411)" fill="#9e9e9e"/>
  </g>
</svg>