<svg xmlns="http://www.w3.org/2000/svg" width="14.722" height="13.951" viewBox="0 0 14.722 13.951">
  <path id="image-upload" d="M16.932,8.841V13.36a2.548,2.548,0,0,1-2.825,2.825H5.069A2.548,2.548,0,0,1,2.244,13.36V5.828A2.548,2.548,0,0,1,5.069,3h6.026a.565.565,0,1,1,0,1.13H5.069c-1.188,0-1.695.507-1.695,1.695V12.8l1.913-1.913a.759.759,0,0,1,1.07,0l.708.708a.377.377,0,0,0,.527,0l3.721-3.721a.759.759,0,0,1,1.07,0l3.42,3.42V8.841a.565.565,0,1,1,1.13,0ZM6.57,6.393a.944.944,0,1,0,.005,0Zm7.937-2.049.166-.165V5.828a.565.565,0,1,0,1.13,0V4.179l.166.165a.565.565,0,0,0,.8-.8l-1.13-1.13a.566.566,0,0,0-.8,0l-1.13,1.13a.565.565,0,0,0,.8.8Z" transform="translate(-2.227 -2.251)" fill="#a5a5a5"/>
</svg>