<svg id="Icon" xmlns="http://www.w3.org/2000/svg" width="44" height="49.029" viewBox="0 0 44 49.029">
  <path id="Path_151035" data-name="Path 151035" d="M47.25,18.789A6.92,6.92,0,0,0,45.226,13.9C42.8,11.482,38.018,6.7,35.6,4.274A6.92,6.92,0,0,0,30.711,2.25H15.193A11.941,11.941,0,0,0,3.25,14.193V39.336A11.944,11.944,0,0,0,15.193,51.279H35.307A11.944,11.944,0,0,0,47.25,39.336ZM30.907,6.026c-.065,0-.131-.005-.2-.005H15.193a8.172,8.172,0,0,0-8.171,8.171V39.336a8.171,8.171,0,0,0,8.171,8.171H35.307a8.171,8.171,0,0,0,8.171-8.171V18.789c0-.065,0-.131-.005-.2H37.821a6.91,6.91,0,0,1-6.914-6.914Zm9.9,8.795L34.679,8.689v2.989a3.142,3.142,0,0,0,3.143,3.143Z" transform="translate(-3.25 -2.25)" fill="#bec3d1" fill-rule="evenodd"/>
  <path id="Path_151036" data-name="Path 151036" d="M16.164,9.25h.045a1.928,1.928,0,0,1,.5.08l.005,0a1.856,1.856,0,0,1,.782.47l5.029,5.029A1.885,1.885,0,1,1,19.86,17.5l-1.81-1.808v8.018a1.886,1.886,0,1,1-3.771,0V15.689L12.468,17.5A1.885,1.885,0,1,1,9.8,14.832L14.831,9.8a1.856,1.856,0,0,1,.782-.47l.005,0a1.928,1.928,0,0,1,.5-.08Z" transform="translate(5.836 8.35)" fill="#bec3d1" fill-rule="evenodd"/>
</svg>
