<svg xmlns="http://www.w3.org/2000/svg" width="14.921" height="14.849" viewBox="0 0 14.921 14.849">
  <g id="Group_61306" data-name="Group 61306" transform="translate(-2.178 -2.225)">
    <path id="Path_153770" data-name="Path 153770" d="M12.553,4.546,10.972,6.126A.76.76,0,0,1,9.9,5.052l1.581-1.581a4.36,4.36,0,0,1,6.1,0l.072.072a4.36,4.36,0,0,1,0,6.1l-1.581,1.581A.76.76,0,0,1,15,10.154l1.581-1.581a2.841,2.841,0,0,0,0-3.956l-.072-.072a2.841,2.841,0,0,0-3.956,0Z" transform="translate(-1.803)" fill="#a5a5a5"/>
    <path id="Path_153771" data-name="Path 153771" d="M6.079,9.851a.76.76,0,0,1,0,1.074L4.5,12.506a2.841,2.841,0,0,0,0,3.956l.072.072a2.841,2.841,0,0,0,3.956,0l1.581-1.581a.76.76,0,1,1,1.074,1.074L9.6,17.608a4.36,4.36,0,0,1-6.1,0l-.072-.072a4.36,4.36,0,0,1,0-6.1L5.005,9.851a.76.76,0,0,1,1.074,0Z" transform="translate(0 -1.78)" fill="#a5a5a5"/>
    <path id="Path_153772" data-name="Path 153772" d="M13.676,9.595A.76.76,0,1,0,12.593,8.53l-4.024,4.1a.76.76,0,0,0,1.084,1.065Z" transform="translate(-1.484 -1.462)" fill="#a5a5a5"/>
  </g>
</svg>
