<svg xmlns="http://www.w3.org/2000/svg" width="9.962" height="9.962" viewBox="0 0 9.962 9.962">
  <g id="Layer_2" data-name="Layer 2" transform="translate(-3.25 -3.25)">
    <path id="Path_120533" data-name="Path 120533" d="M12.216,3.819H10.935V3.677a.427.427,0,0,0-.854,0v.142h-3.7V3.677a.427.427,0,0,0-.854,0v.142H4.246a1,1,0,0,0-1,1v7.4a1,1,0,0,0,1,1h7.969a1,1,0,0,0,1-1v-7.4a1,1,0,0,0-1-1Zm-7.969.854H5.527v.142a.427.427,0,0,0,.854,0V4.673h3.7v.142a.427.427,0,0,0,.854,0V4.673h1.281a.142.142,0,0,1,.142.142v1.85H4.1V4.815A.142.142,0,0,1,4.246,4.673Zm7.969,7.685H4.246a.142.142,0,0,1-.142-.142v-4.7h8.254v4.7A.142.142,0,0,1,12.216,12.358Z" fill="#b4b4b4"/>
  </g>
</svg>
