<svg xmlns="http://www.w3.org/2000/svg" width="80" height="88" viewBox="0 0 80 88">
  <g id="Group_37398" data-name="Group 37398" transform="translate(-4635 -204)">
    <g id="Layer_2" data-name="Layer 2" transform="translate(4634.5 211.5)">
      <g id="exclamation">
        <circle id="background" cx="40" cy="40" r="40" transform="translate(0.5 0.5)" fill="#ffe6ed"/>
        <g id="Group_34547" data-name="Group 34547" transform="translate(33.864 18.238)">
          <path id="Path_113520" data-name="Path 113520" d="M221.768,146.062a5.643,5.643,0,0,1-5.638-5.418l-.744-18.779A5.643,5.643,0,0,1,221.025,116h1.487a5.643,5.643,0,0,1,5.638,5.865l-.744,18.779A5.643,5.643,0,0,1,221.768,146.062Z" transform="translate(-215.382 -116)" fill="#ffe6ed"/>
          <rect id="Rectangle_13980" data-name="Rectangle 13980" width="11.267" height="11.267" rx="5.633" transform="translate(0.753 32.757)" fill="#ffe6ed"/>
        </g>
      </g>
    </g>
    <g id="Group_37397" data-name="Group 37397" transform="translate(4578.563 203.97)">
      <path id="Path_119849" data-name="Path 119849" d="M148.58,216.19H117.089a6.759,6.759,0,0,1-6.747-6.36l-2.963-50.193a1.4,1.4,0,0,1,1.4-1.487h48.11a1.4,1.4,0,0,1,1.4,1.487l-2.964,50.193a6.759,6.759,0,0,1-6.747,6.36Z" transform="translate(-36.185 -131.034)" fill="#fff"/>
      <path id="Path_119850" data-name="Path 119850" d="M147.354,144.4a3.984,3.984,0,0,0-2.89-1.247H96.353a3.973,3.973,0,0,0-3.966,4.207l2.963,50.192a9.337,9.337,0,0,0,9.312,8.779h2.128a2.569,2.569,0,1,0,0-5.139h-2.128a4.2,4.2,0,0,1-4.183-3.943l-2.89-48.957h45.638l-2.89,48.957a4.2,4.2,0,0,1-4.183,3.943H117.069a2.569,2.569,0,1,0,0,5.139h19.086a9.337,9.337,0,0,0,9.312-8.779l2.963-50.192A3.99,3.99,0,0,0,147.354,144.4Z" transform="translate(-23.76 -118.604)" fill="#e1003e"/>
      <path id="Path_119851" data-name="Path 119851" d="M286.4,411.034h-.454a2.569,2.569,0,0,1,0-5.139h.454a2.965,2.965,0,0,0,2.962-2.962v-.454a2.57,2.57,0,0,1,5.139,0v.454A8.11,8.11,0,0,1,286.4,411.034Z" transform="translate(-182.041 -331.381)" fill="#ffe5ea"/>
      <path id="Path_119852" data-name="Path 119852" d="M139.449,104.763v4.9a2.322,2.322,0,0,1-2.321,2.321h-56.1a2.322,2.322,0,0,1-2.321-2.321v-4.9a2.322,2.322,0,0,1,2.321-2.323h56.1A2.322,2.322,0,0,1,139.449,104.763Z" transform="translate(-12.431 -84.867)" fill="#ffe5ea"/>
      <g id="Group_37397-2" data-name="Group 37397" transform="translate(63.71 0.03)">
        <path id="Path_119853" data-name="Path 119853" d="M124.7,102.12H68.6A4.9,4.9,0,0,1,63.71,97.23v-4.9A4.9,4.9,0,0,1,68.6,87.44h56.1a4.9,4.9,0,0,1,4.891,4.892v4.9A4.9,4.9,0,0,1,124.7,102.12ZM68.849,96.981h55.6v-4.4h-55.6Z" transform="translate(-63.71 -72.467)" fill="#e1003e"/>
        <path id="Path_119854" data-name="Path 119854" d="M241,258.663V228.91a2.569,2.569,0,1,1,5.139,0v29.753a2.569,2.569,0,0,1-5.139,0Z" transform="translate(-210.63 -187.573)" fill="#e1003e"/>
        <path id="Path_119855" data-name="Path 119855" d="M294.961,258.855l2.02-29.685a2.569,2.569,0,0,1,5.127.348l-2.02,29.685a2.569,2.569,0,0,1-5.127-.348Z" transform="translate(-255.343 -187.934)" fill="#e1003e"/>
        <path id="Path_119856" data-name="Path 119856" d="M182.408,258.855l-2.02-29.685a2.569,2.569,0,0,0-5.127.348l2.02,29.685a2.569,2.569,0,0,0,5.127-.348Z" transform="translate(-156.147 -187.934)" fill="#e1003e"/>
        <path id="Path_119857" data-name="Path 119857" d="M193.138,20.142H179.1a7.426,7.426,0,0,1-7.239-9.081l.6-2.605A10.793,10.793,0,0,1,183.031.03h6.175a10.791,10.791,0,0,1,10.571,8.426l.6,2.605a7.426,7.426,0,0,1-7.239,9.081ZM183.031,5.169A5.678,5.678,0,0,0,177.469,9.6l-.6,2.605A2.286,2.286,0,0,0,179.1,15h14.035a2.286,2.286,0,0,0,2.229-2.8l-.6-2.605a5.678,5.678,0,0,0-5.562-4.433Z" transform="translate(-153.18 -0.03)" fill="#e1003e"/>
      </g>
    </g>
  </g>
</svg>