<svg xmlns="http://www.w3.org/2000/svg" width="30.463" height="28.286" viewBox="0 0 30.463 28.286">
  <g id="Group_59721" data-name="Group 59721" transform="translate(0 -9.084)">
    <path id="Path_153804" data-name="Path 153804" d="M104.261,15.281a2.555,2.555,0,0,1-1.676.316,2.18,2.18,0,0,1-.694-.227,11.759,11.759,0,0,0-1.474-.823.848.848,0,0,1-.527-.617,1.386,1.386,0,0,1,.428-.968l-1.584.991-1.348.843a.728.728,0,0,0-.253.268l3.763,2.266,3.72-2.24C104.5,15.153,104.376,15.217,104.261,15.281Z" transform="translate(-91.354 -3.647)" fill="#fe3d97"/>
    <path id="Path_153805" data-name="Path 153805" d="M146.5,11.149,143.374,9.2a.729.729,0,0,0-.773,0l-.424.265c-.3.413-.57,1.076.291,1.519a10.125,10.125,0,0,1,1.464.817,2.488,2.488,0,0,0,1.958.139l.86-.518a.727.727,0,0,0-.253-.268Z" transform="translate(-133.446)" fill="#fd77a6"/>
    <path id="Path_153806" data-name="Path 153806" d="M161.137,60.656a.673.673,0,0,1-.208-.5V58.153a2.076,2.076,0,0,1,.692-1.439l.024-.02.022-.107-3,1.712.1,4.234a.729.729,0,0,0,.364-.1l2.751-1.572a.983.983,0,0,1-.748-.208Z" transform="translate(-149.23 -44.675)" fill="#2fd0e2"/>
    <path id="Path_153807" data-name="Path 153807" d="M196.91,52.185V48.609a.728.728,0,0,0-.091-.352l-.97.554a2.15,2.15,0,0,0-.724,1.508v2.006a.762.762,0,0,0,.237.564.971.971,0,0,0,.647.234l.533-.3a.729.729,0,0,0,.367-.633Z" transform="translate(-183.516 -36.842)" fill="#3feadd"/>
    <g id="Group_59723" data-name="Group 59723" transform="translate(5.689 11.415)">
      <path id="Path_153808" data-name="Path 153808" d="M95.625,48.609v3.576a.729.729,0,0,0,.367.633L99.116,54.6a.728.728,0,0,0,.362.1V50.407l-3.762-2.15A.728.728,0,0,0,95.625,48.609Z" transform="translate(-95.625 -48.257)" fill="#9c58fe"/>
    </g>
    <g id="Group_59725" data-name="Group 59725" transform="translate(17.068 9.084)">
      <path id="Path_153809" data-name="Path 153809" d="M295.511,15.28a2.555,2.555,0,0,1-1.676.316,2.18,2.18,0,0,1-.694-.227,11.759,11.759,0,0,0-1.474-.823.848.848,0,0,1-.527-.617,1.387,1.387,0,0,1,.428-.968l-1.584.991-1.348.843a.728.728,0,0,0-.253.268l3.763,2.266,3.72-2.24C295.745,15.152,295.626,15.216,295.511,15.28Z" transform="translate(-288.293 -12.73)" fill="#fe3d97"/>
      <path id="Path_153810" data-name="Path 153810" d="M337.748,11.149,334.624,9.2a.729.729,0,0,0-.773,0l-.424.265c-.3.413-.57,1.076.291,1.519a10.125,10.125,0,0,1,1.464.817,2.488,2.488,0,0,0,1.958.139l.86-.518A.727.727,0,0,0,337.748,11.149Z" transform="translate(-330.385 -9.084)" fill="#fd77a6"/>
      <path id="Path_153811" data-name="Path 153811" d="M352.387,60.656a.673.673,0,0,1-.208-.5V58.153a2.076,2.076,0,0,1,.692-1.439l.024-.02.022-.107-3,1.712.1,4.234a.729.729,0,0,0,.364-.1l2.751-1.572a.983.983,0,0,1-.748-.208Z" transform="translate(-346.17 -53.76)" fill="#2fd0e2"/>
      <path id="Path_153812" data-name="Path 153812" d="M388.16,52.185V48.609a.728.728,0,0,0-.091-.352l-.97.554a2.15,2.15,0,0,0-.724,1.508v2.006a.762.762,0,0,0,.237.564.971.971,0,0,0,.647.234l.533-.3a.729.729,0,0,0,.367-.633Z" transform="translate(-380.455 -45.926)" fill="#3feadd"/>
      <g id="Group_59724" data-name="Group 59724" transform="translate(0 2.331)">
        <path id="Path_153813" data-name="Path 153813" d="M286.875,48.609v3.576a.729.729,0,0,0,.367.633l3.124,1.785a.728.728,0,0,0,.362.1V50.407l-3.762-2.15A.728.728,0,0,0,286.875,48.609Z" transform="translate(-286.875 -48.257)" fill="#9c58fe"/>
      </g>
    </g>
    <g id="Group_59726" data-name="Group 59726" transform="translate(10.696 16.348)">
      <path id="Path_153814" data-name="Path 153814" d="M182.306,135.578a.6.6,0,0,1-.51-.288l-1.942-3.224a.6.6,0,0,1,1.019-.614l1.942,3.224a.6.6,0,0,1-.509.9Z" transform="translate(-179.769 -131.164)" fill="#ffc242"/>
    </g>
    <g id="Group_59727" data-name="Group 59727" transform="translate(16.59 16.348)">
      <path id="Path_153815" data-name="Path 153815" d="M279.431,135.578a.6.6,0,0,1-.509-.9l1.942-3.224a.6.6,0,0,1,1.019.614l-1.942,3.224A.6.6,0,0,1,279.431,135.578Z" transform="translate(-278.837 -131.164)" fill="#fef156"/>
    </g>
    <g id="Group_59728" data-name="Group 59728" transform="translate(5.217 16.302)">
      <path id="Path_153816" data-name="Path 153816" d="M88.284,134.925a.6.6,0,0,1-.515-.893L89.7,130.7a.595.595,0,0,1,1.031.595L88.8,134.628a.6.6,0,0,1-.516.3Z" transform="translate(-87.689 -130.399)" fill="#ffc242"/>
    </g>
    <g id="Group_59729" data-name="Group 59729" transform="translate(22.129 16.302)">
      <path id="Path_153817" data-name="Path 153817" d="M374.458,134.925a.6.6,0,0,1-.516-.3l-1.926-3.337a.595.595,0,0,1,1.031-.595l1.926,3.337a.6.6,0,0,1-.515.893Z" transform="translate(-371.936 -130.398)" fill="#fffbb3"/>
    </g>
    <g id="Group_59731" data-name="Group 59731" transform="translate(22.758 18.849)">
      <path id="Path_153818" data-name="Path 153818" d="M391.137,179.392a2.555,2.555,0,0,1-1.676.316,2.181,2.181,0,0,1-.694-.227,11.749,11.749,0,0,0-1.474-.823.848.848,0,0,1-.527-.617,1.386,1.386,0,0,1,.428-.968l-1.584.991-1.349.843a.728.728,0,0,0-.253.268l3.763,2.266,3.72-2.24C391.371,179.264,391.252,179.328,391.137,179.392Z" transform="translate(-383.919 -176.842)" fill="#fe3d97"/>
      <path id="Path_153819" data-name="Path 153819" d="M433.373,175.259l-3.124-1.954a.729.729,0,0,0-.773,0l-.424.265c-.3.413-.57,1.076.291,1.519a10.126,10.126,0,0,1,1.464.817,2.488,2.488,0,0,0,1.958.139l.86-.518A.728.728,0,0,0,433.373,175.259Z" transform="translate(-426.01 -173.194)" fill="#fd77a6"/>
      <path id="Path_153820" data-name="Path 153820" d="M448.012,224.766a.673.673,0,0,1-.208-.5v-2.006a2.076,2.076,0,0,1,.692-1.439l.024-.02.022-.107-3,1.712.1,4.234a.728.728,0,0,0,.364-.1l2.751-1.572A.983.983,0,0,1,448.012,224.766Z" transform="translate(-441.795 -217.87)" fill="#2fd0e2"/>
      <path id="Path_153821" data-name="Path 153821" d="M483.785,216.295v-3.576a.728.728,0,0,0-.091-.352l-.97.554a2.15,2.15,0,0,0-.724,1.508v2.006a.762.762,0,0,0,.237.564.971.971,0,0,0,.647.234l.533-.3A.729.729,0,0,0,483.785,216.295Z" transform="translate(-476.08 -210.036)" fill="#3feadd"/>
      <g id="Group_59730" data-name="Group 59730" transform="translate(0 2.331)">
        <path id="Path_153822" data-name="Path 153822" d="M382.5,212.719V216.3a.729.729,0,0,0,.367.633l3.124,1.785a.728.728,0,0,0,.362.1v-4.292l-3.762-2.15A.727.727,0,0,0,382.5,212.719Z" transform="translate(-382.5 -212.367)" fill="#9c58fe"/>
      </g>
    </g>
    <g id="Group_59733" data-name="Group 59733" transform="translate(0 18.849)">
      <path id="Path_153823" data-name="Path 153823" d="M8.636,179.392a2.555,2.555,0,0,1-1.676.316,2.18,2.18,0,0,1-.694-.227,11.756,11.756,0,0,0-1.474-.823.848.848,0,0,1-.527-.617,1.386,1.386,0,0,1,.428-.968l-1.584.99-1.348.843a.728.728,0,0,0-.253.268l3.763,2.266,3.72-2.24C8.87,179.264,8.751,179.328,8.636,179.392Z" transform="translate(-1.418 -176.842)" fill="#fe3d97"/>
      <path id="Path_153824" data-name="Path 153824" d="M50.873,175.259l-3.124-1.954a.729.729,0,0,0-.773,0l-.424.265c-.3.413-.57,1.076.291,1.519a10.124,10.124,0,0,1,1.464.817,2.488,2.488,0,0,0,1.958.139l.86-.518A.728.728,0,0,0,50.873,175.259Z" transform="translate(-43.51 -173.194)" fill="#fd77a6"/>
      <path id="Path_153825" data-name="Path 153825" d="M65.511,224.766a.673.673,0,0,1-.208-.5v-2.006A2.076,2.076,0,0,1,66,220.823l.024-.02.022-.107-3,1.712.1,4.234a.728.728,0,0,0,.364-.1l2.751-1.572A.983.983,0,0,1,65.511,224.766Z" transform="translate(-59.294 -217.87)" fill="#2fd0e2"/>
      <path id="Path_153826" data-name="Path 153826" d="M101.285,216.295v-3.576a.728.728,0,0,0-.091-.352l-.97.554a2.15,2.15,0,0,0-.724,1.508v2.006a.762.762,0,0,0,.237.564.971.971,0,0,0,.647.234l.533-.3A.729.729,0,0,0,101.285,216.295Z" transform="translate(-93.58 -210.036)" fill="#3feadd"/>
      <g id="Group_59732" data-name="Group 59732" transform="translate(0 2.331)">
        <path id="Path_153827" data-name="Path 153827" d="M0,212.719V216.3a.729.729,0,0,0,.367.633l3.124,1.785a.728.728,0,0,0,.362.1v-4.292l-3.762-2.15a.728.728,0,0,0-.091.352Z" transform="translate(0 -212.367)" fill="#9c58fe"/>
      </g>
    </g>
    <g id="Group_59734" data-name="Group 59734" transform="translate(7.02 22.853)">
      <path id="Path_153828" data-name="Path 153828" d="M122.351,241.686h-3.764a.595.595,0,0,1,0-1.19h3.764a.595.595,0,0,1,0,1.19Z" transform="translate(-117.992 -240.496)" fill="#ffc242"/>
    </g>
    <g id="Group_59735" data-name="Group 59735" transform="translate(18.444 22.853)">
      <path id="Path_153829" data-name="Path 153829" d="M314.355,241.686h-3.764a.595.595,0,1,1,0-1.19h3.764a.595.595,0,0,1,0,1.19Z" transform="translate(-309.996 -240.496)" fill="#fef156"/>
    </g>
    <g id="Group_59737" data-name="Group 59737" transform="translate(11.379 18.849)">
      <path id="Path_153830" data-name="Path 153830" d="M199.887,179.392a2.555,2.555,0,0,1-1.676.316,2.18,2.18,0,0,1-.694-.227,11.758,11.758,0,0,0-1.474-.823.848.848,0,0,1-.527-.617,1.386,1.386,0,0,1,.428-.968l-1.584.991-1.349.843a.728.728,0,0,0-.253.268l3.763,2.266,3.72-2.24C200.121,179.264,200,179.328,199.887,179.392Z" transform="translate(-192.669 -176.842)" fill="#fe3d97"/>
      <path id="Path_153831" data-name="Path 153831" d="M242.123,175.259,239,173.305a.729.729,0,0,0-.773,0l-.424.265c-.3.413-.57,1.076.291,1.519a10.124,10.124,0,0,1,1.464.817,2.488,2.488,0,0,0,1.958.139l.86-.518A.728.728,0,0,0,242.123,175.259Z" transform="translate(-234.76 -173.194)" fill="#fd77a6"/>
      <path id="Path_153832" data-name="Path 153832" d="M256.762,224.766a.673.673,0,0,1-.208-.5v-2.006a2.076,2.076,0,0,1,.692-1.439l.024-.02.022-.107-3,1.712.1,4.234a.728.728,0,0,0,.364-.1l2.751-1.572A.983.983,0,0,1,256.762,224.766Z" transform="translate(-250.545 -217.87)" fill="#2fd0e2"/>
      <path id="Path_153833" data-name="Path 153833" d="M292.535,216.295v-3.576a.728.728,0,0,0-.091-.352l-.97.554a2.15,2.15,0,0,0-.724,1.508v2.006a.762.762,0,0,0,.237.564.971.971,0,0,0,.647.234l.533-.3A.729.729,0,0,0,292.535,216.295Z" transform="translate(-284.83 -210.036)" fill="#3feadd"/>
      <g id="Group_59736" data-name="Group 59736" transform="translate(0 2.331)">
        <path id="Path_153834" data-name="Path 153834" d="M191.25,212.719V216.3a.729.729,0,0,0,.367.633l3.124,1.785a.728.728,0,0,0,.362.1v-4.292l-3.762-2.15A.728.728,0,0,0,191.25,212.719Z" transform="translate(-191.25 -212.367)" fill="#9c58fe"/>
      </g>
    </g>
    <g id="Group_59738" data-name="Group 59738" transform="translate(16.59 26.134)">
      <path id="Path_153835" data-name="Path 153835" d="M281.373,300.051a.6.6,0,0,1-.51-.288l-1.942-3.224a.6.6,0,0,1,1.019-.614l1.942,3.224a.6.6,0,0,1-.509.9Z" transform="translate(-278.836 -295.637)" fill="#fef156"/>
    </g>
    <g id="Group_59739" data-name="Group 59739" transform="translate(10.696 26.134)">
      <path id="Path_153836" data-name="Path 153836" d="M180.364,300.05a.6.6,0,0,1-.509-.9l1.942-3.224a.6.6,0,1,1,1.019.614l-1.942,3.224A.6.6,0,0,1,180.364,300.05Z" transform="translate(-179.77 -295.636)" fill="#fef156"/>
    </g>
    <g id="Group_59740" data-name="Group 59740" transform="translate(22.129 26.067)">
      <path id="Path_153837" data-name="Path 153837" d="M372.532,299.035a.6.6,0,0,1-.515-.893l1.926-3.337a.595.595,0,1,1,1.031.595l-1.926,3.337A.6.6,0,0,1,372.532,299.035Z" transform="translate(-371.937 -294.508)" fill="#fffbb3"/>
    </g>
    <g id="Group_59741" data-name="Group 59741" transform="translate(5.217 26.067)">
      <path id="Path_153838" data-name="Path 153838" d="M90.21,299.036a.6.6,0,0,1-.516-.3L87.768,295.4a.595.595,0,1,1,1.031-.595l1.926,3.337a.6.6,0,0,1-.515.893Z" transform="translate(-87.688 -294.509)" fill="#ffc242"/>
    </g>
    <g id="Group_59742" data-name="Group 59742" transform="translate(12.71 13.089)">
      <path id="Path_153839" data-name="Path 153839" d="M218.073,77.575H214.22a.595.595,0,0,1,0-1.19h3.853a.595.595,0,0,1,0,1.19Z" transform="translate(-213.625 -76.385)" fill="#ffc242"/>
    </g>
    <path id="Path_153840" data-name="Path 153840" d="M104.261,343.5a2.555,2.555,0,0,1-1.676.316,2.18,2.18,0,0,1-.694-.227,11.751,11.751,0,0,0-1.474-.823.848.848,0,0,1-.527-.617,1.386,1.386,0,0,1,.428-.968l-1.584.991-1.349.843a.728.728,0,0,0-.253.268l3.763,2.266,3.72-2.24C104.5,343.373,104.376,343.437,104.261,343.5Z" transform="translate(-91.354 -312.338)" fill="#fe3d97"/>
    <path id="Path_153841" data-name="Path 153841" d="M146.5,339.37l-3.124-1.954a.729.729,0,0,0-.773,0l-.424.265c-.3.413-.57,1.076.291,1.519a10.127,10.127,0,0,1,1.464.817,2.488,2.488,0,0,0,1.958.139l.86-.518a.727.727,0,0,0-.253-.268Z" transform="translate(-133.446 -308.693)" fill="#fd77a6"/>
    <path id="Path_153842" data-name="Path 153842" d="M161.137,388.877a.673.673,0,0,1-.208-.5v-2.006a2.076,2.076,0,0,1,.692-1.439l.024-.02.022-.107-3,1.712.1,4.161.142.058a.725.725,0,0,0,.224-.081l2.751-1.572a.983.983,0,0,1-.748-.208Z" transform="translate(-149.23 -353.368)" fill="#2fd0e2"/>
    <path id="Path_153843" data-name="Path 153843" d="M196.91,380.4v-3.576a.728.728,0,0,0-.091-.352l-.97.554a2.15,2.15,0,0,0-.724,1.508v2.006a.762.762,0,0,0,.237.564.971.971,0,0,0,.647.234l.533-.3A.729.729,0,0,0,196.91,380.4Z" transform="translate(-183.516 -345.533)" fill="#3feadd"/>
    <g id="Group_59743" data-name="Group 59743" transform="translate(5.689 30.944)">
      <path id="Path_153844" data-name="Path 153844" d="M95.625,376.829v3.576c0,.014,0,.027,0,.04a14.58,14.58,0,0,0,3.85,2.4v-4.221l-3.762-2.15A.728.728,0,0,0,95.625,376.829Z" transform="translate(-95.625 -376.477)" fill="#9c58fe"/>
    </g>
    <path id="Path_153845" data-name="Path 153845" d="M295.512,343.5a2.555,2.555,0,0,1-1.676.316,2.18,2.18,0,0,1-.694-.227,11.753,11.753,0,0,0-1.474-.823.848.848,0,0,1-.527-.617,1.386,1.386,0,0,1,.428-.968l-1.584.991-1.349.843a.728.728,0,0,0-.253.268l3.763,2.266,3.72-2.24C295.746,343.373,295.627,343.437,295.512,343.5Z" transform="translate(-271.226 -312.338)" fill="#fe3d97"/>
    <path id="Path_153846" data-name="Path 153846" d="M337.748,339.37l-3.124-1.954a.729.729,0,0,0-.773,0l-.424.265c-.3.413-.57,1.076.291,1.519a10.127,10.127,0,0,1,1.464.817,2.488,2.488,0,0,0,1.958.139l.86-.518A.727.727,0,0,0,337.748,339.37Z" transform="translate(-313.317 -308.693)" fill="#fd77a6"/>
    <path id="Path_153847" data-name="Path 153847" d="M350.018,390.684a14.548,14.548,0,0,0,2.845-1.606.836.836,0,0,1-.477-.2.673.673,0,0,1-.208-.5v-2.006a2.076,2.076,0,0,1,.692-1.439l.024-.02.022-.107-3,1.712Z" transform="translate(-329.101 -353.368)" fill="#2fd0e2"/>
    <path id="Path_153848" data-name="Path 153848" d="M387.1,377.031a2.15,2.15,0,0,0-.724,1.508v2.006a.762.762,0,0,0,.237.563.881.881,0,0,0,.433.21q.578-.41,1.112-.873c0-.013,0-.027,0-.04v-3.576a.729.729,0,0,0-.091-.352Z" transform="translate(-363.387 -345.534)" fill="#3feadd"/>
    <g id="Group_59744" data-name="Group 59744" transform="translate(17.068 30.944)">
      <path id="Path_153849" data-name="Path 153849" d="M286.875,376.829v3.576a.729.729,0,0,0,.367.633l3.124,1.785a.728.728,0,0,0,.224.081l.138-.057v-4.221l-3.762-2.15A.728.728,0,0,0,286.875,376.829Z" transform="translate(-286.875 -376.477)" fill="#9c58fe"/>
    </g>
    <g id="Group_59745" data-name="Group 59745" transform="translate(12.71 32.617)">
      <path id="Path_153850" data-name="Path 153850" d="M218.073,405.8H214.22a.595.595,0,0,1,0-1.19h3.853a.595.595,0,0,1,0,1.19Z" transform="translate(-213.625 -404.606)" fill="#fef156"/>
    </g>
  </g>
</svg>
