<svg id="Group_59720" data-name="Group 59720" xmlns="http://www.w3.org/2000/svg" width="28.344" height="28.344" viewBox="0 0 28.344 28.344">
  <path id="Path_153789" data-name="Path 153789" d="M130.951,192.465a.821.821,0,0,1-.4-.1.829.829,0,0,1-.323-1.129l3.249-5.9a.83.83,0,0,1,1.452.806l-3.25,5.9A.83.83,0,0,1,130.951,192.465Zm0,0" transform="translate(-122.918 -174.663)" fill="#fbfcfd"/>
  <path id="Path_153790" data-name="Path 153790" d="M297.254,192.465a.83.83,0,0,1-.727-.427l-3.25-5.9a.83.83,0,0,1,1.452-.806l3.249,5.9a.829.829,0,0,1-.323,1.129A.821.821,0,0,1,297.254,192.465Zm0,0" transform="translate(-276.944 -174.663)" fill="#fbfcfd"/>
  <path id="Path_153791" data-name="Path 153791" d="M189.3,362.83a.822.822,0,0,1-.83.83H181.83a.83.83,0,1,1,0-1.661h6.643A.822.822,0,0,1,189.3,362.83Zm0,0" transform="translate(-170.98 -341.96)" fill="#fbfcfd"/>
  <path id="Path_153792" data-name="Path 153792" d="M260.152,362.83a.822.822,0,0,1-.83.83H256V362h3.322A.822.822,0,0,1,260.152,362.83Zm0,0" transform="translate(-241.828 -341.96)" fill="#fbfcfd"/>
  <path id="Path_153793" data-name="Path 153793" d="M383.412,332.066,380.567,332l-2.906,3.322L376,338.56l1.661,3.4a.75.75,0,0,0,.415-.116l5.054-2.956c.033-.017.066-.05.1-.066a.912.912,0,0,0,.3-.648v-5.7A.714.714,0,0,0,383.412,332.066Zm0,0" transform="translate(-355.185 -313.621)" fill="#de94e0"/>
  <path id="Path_153794" data-name="Path 153794" d="M303.906,332l-2.79.066a.75.75,0,0,0-.116.415v5.7a.912.912,0,0,0,.3.648c.033.016,5.1,3.022,5.1,3.022a.75.75,0,0,0,.415.116v-6.643Zm0,0" transform="translate(-284.337 -313.621)" fill="#f1b3f3"/>
  <path id="Path_153795" data-name="Path 153795" d="M314.55,275.388l-5.752,3.255-5.7-3.255c.016-.016.033-.05.05-.066a.831.831,0,0,1,.249-.232l4.982-2.973a.8.8,0,0,1,.83,0l5.038,2.973a1.115,1.115,0,0,1,.249.232C314.517,275.338,314.533,275.372,314.55,275.388Zm0,0" transform="translate(-286.322 -256.942)" fill="#cd6dd0"/>
  <path id="Path_153796" data-name="Path 153796" d="M83.357,332.066,80.567,332l-2.906,3.322L76,338.56l1.661,3.4a.75.75,0,0,0,.415-.116l5-2.956c.033-.017.066-.05.1-.066a.912.912,0,0,0,.3-.648v-5.7A.714.714,0,0,0,83.357,332.066Zm0,0" transform="translate(-71.793 -313.621)" fill="#de94e0"/>
  <path id="Path_153797" data-name="Path 153797" d="M2.962,332l-2.845.066a.75.75,0,0,0-.116.415v5.7a.912.912,0,0,0,.3.648c.033.016,5.154,3.022,5.154,3.022a.75.75,0,0,0,.415.116v-6.643Zm0,0" transform="translate(0 -313.621)" fill="#f1b3f3"/>
  <path id="Path_153798" data-name="Path 153798" d="M13.55,275.388l-5.7,3.255L2.1,275.388c.016-.016.033-.05.05-.066a.831.831,0,0,1,.249-.232l5.038-2.973a.8.8,0,0,1,.83,0l4.982,2.973a1.114,1.114,0,0,1,.249.232C13.517,275.338,13.533,275.372,13.55,275.388Zm0,0" transform="translate(-1.985 -256.942)" fill="#cd6dd0"/>
  <path id="Path_153799" data-name="Path 153799" d="M233.357,61.066,230.567,61l-2.906,3.322L226,67.56l1.661,3.4a.75.75,0,0,0,.415-.116l5-2.956c.033-.017.066-.05.1-.066a.912.912,0,0,0,.3-.648v-5.7A.714.714,0,0,0,233.357,61.066Zm0,0" transform="translate(-213.489 -57.623)" fill="#de94e0"/>
  <path id="Path_153800" data-name="Path 153800" d="M153.906,61l-2.79.066a.75.75,0,0,0-.116.415v5.7a.912.912,0,0,0,.3.648c.033.016,5.1,3.022,5.1,3.022a.75.75,0,0,0,.415.116V64.322Zm0,0" transform="translate(-142.641 -57.623)" fill="#f1b3f3"/>
  <path id="Path_153801" data-name="Path 153801" d="M164.494,3.443,158.8,6.7l-5.7-3.255c.016-.016.033-.05.05-.066a.831.831,0,0,1,.249-.232L158.383.116a.8.8,0,0,1,.83,0L164.2,3.144a1.115,1.115,0,0,1,.249.232C164.461,3.394,164.478,3.427,164.494,3.443Zm0,0" transform="translate(-144.626 0)" fill="#cd6dd0"/>
  <path id="Path_153802" data-name="Path 153802" d="M261.7,3.443,256,6.7V0a.789.789,0,0,1,.415.116L261.4,3.144a1.114,1.114,0,0,1,.249.232C261.663,3.394,261.68,3.427,261.7,3.443Zm0,0" transform="translate(-241.828)" fill="#cd6dd0"/>
</svg>
