<svg xmlns="http://www.w3.org/2000/svg" width="29.575" height="20.479" viewBox="0 0 29.575 20.479">
  <g id="Group_59746" data-name="Group 59746" transform="translate(0.001)">
    <path id="Path_153851" data-name="Path 153851" d="M262.2,134.655a8.325,8.325,0,0,0-14.329,0,3.354,3.354,0,0,0-.025,3.408,3.392,3.392,0,0,0,2.98,1.734h8.42a3.393,3.393,0,0,0,2.98-1.734A3.355,3.355,0,0,0,262.2,134.655Zm0,0" transform="translate(-233.104 -123.028)" fill="#1b34fa"/>
    <path id="Path_153852" data-name="Path 153852" d="M383.878,131.677a8.319,8.319,0,0,0-4.183-1.126h0v9.227h4.21a3.392,3.392,0,0,0,2.979-1.734,3.354,3.354,0,0,0-.025-3.408A8.37,8.37,0,0,0,383.878,131.677Zm0,0" transform="translate(-357.764 -123.01)" fill="#1b34fa"/>
    <path id="Path_153853" data-name="Path 153853" d="M306.753,1.369a4.674,4.674,0,1,0-6.61,6.61,4.674,4.674,0,1,0,6.61-6.61Zm0,0" transform="translate(-281.516)" fill="#ffd2bf"/>
    <path id="Path_153854" data-name="Path 153854" d="M383,1.386A4.66,4.66,0,0,0,379.7.02V9.364h0A4.672,4.672,0,0,0,383,1.386Zm0,0" transform="translate(-357.764 -0.018)" fill="#ffb89c"/>
    <path id="Path_153855" data-name="Path 153855" d="M14.806,134.655a8.325,8.325,0,0,0-14.329,0,3.354,3.354,0,0,0-.025,3.408,3.393,3.393,0,0,0,2.98,1.734h8.42a3.393,3.393,0,0,0,2.98-1.734A3.355,3.355,0,0,0,14.806,134.655Zm0,0" transform="translate(0 -123.028)" fill="#f1b3f3"/>
    <path id="Path_153856" data-name="Path 153856" d="M136.484,131.677a8.319,8.319,0,0,0-4.183-1.126h0v9.227h4.21a3.393,3.393,0,0,0,2.98-1.734,3.354,3.354,0,0,0-.025-3.408A8.37,8.37,0,0,0,136.484,131.677Zm0,0" transform="translate(-124.66 -123.01)" fill="#f1b3f3"/>
    <path id="Path_153857" data-name="Path 153857" d="M59.359,1.369a4.674,4.674,0,1,0-6.61,6.61,4.674,4.674,0,1,0,6.61-6.61Zm0,0" transform="translate(-48.412)" fill="#ffd2bf"/>
    <path id="Path_153858" data-name="Path 153858" d="M135.606,1.386A4.66,4.66,0,0,0,132.3.02V9.364h0a4.672,4.672,0,0,0,3.305-7.977Zm0,0" transform="translate(-124.66 -0.018)" fill="#ffb89c"/>
    <path id="Path_153859" data-name="Path 153859" d="M138.5,198.885a8.324,8.324,0,0,0-14.329,0,3.354,3.354,0,0,0-.025,3.408,3.393,3.393,0,0,0,2.98,1.734h8.42a3.393,3.393,0,0,0,2.98-1.734A3.354,3.354,0,0,0,138.5,198.885Zm0,0" transform="translate(-116.554 -183.548)" fill="#fe6a16"/>
    <path id="Path_153860" data-name="Path 153860" d="M260.179,195.923A8.32,8.32,0,0,0,256,194.8h0v9.227h4.21a3.393,3.393,0,0,0,2.98-1.734,3.354,3.354,0,0,0-.025-3.408A8.369,8.369,0,0,0,260.179,195.923Zm0,0" transform="translate(-241.21 -183.545)" fill="#ff432e"/>
    <path id="Path_153861" data-name="Path 153861" d="M183.092,65.633a4.672,4.672,0,1,0,0,6.61A4.68,4.68,0,0,0,183.092,65.633Zm0,0" transform="translate(-165 -60.554)" fill="#ffd2bf"/>
    <path id="Path_153862" data-name="Path 153862" d="M259.3,65.633A4.66,4.66,0,0,0,256,64.266V73.61h0a4.672,4.672,0,0,0,3.305-7.977Zm0,0" transform="translate(-241.21 -60.553)" fill="#ffb89c"/>
  </g>
</svg>
