<svg xmlns="http://www.w3.org/2000/svg" width="24.26" height="22.177" viewBox="0 0 24.26 22.177">
  <g id="Group_37219" data-name="Group 37219" transform="translate(0 -20.882)">
    <g id="Group_37218" data-name="Group 37218" transform="translate(0 20.882)">
      <path id="Path_119736" data-name="Path 119736" d="M219.472,333.382a1.247,1.247,0,0,0,0,2.494,1.247,1.247,0,0,0,0-2.494Z" transform="translate(-207.342 -317.797)" fill="#e1243f"/>
      <path id="Path_119737" data-name="Path 119737" d="M23.669,40.885a4.257,4.257,0,0,0,.01-4.309L15.87,23.051a4.3,4.3,0,0,0-7.471,0L.579,36.586a4.319,4.319,0,0,0,3.74,6.473h15.6A4.3,4.3,0,0,0,23.669,40.885Zm-1.7-.977a2.357,2.357,0,0,1-2.06,1.192H4.315A2.324,2.324,0,0,1,2.28,39.933a2.36,2.36,0,0,1,0-2.379l7.82-13.535a2.349,2.349,0,0,1,4.079,0l7.815,13.535A2.329,2.329,0,0,1,21.974,39.908Z" transform="translate(0 -20.882)" fill="#e1243f"/>
      <path id="Path_119738" data-name="Path 119738" d="M218.688,157.211a1.356,1.356,0,0,0-.963,1.361c.03.394.055.793.085,1.187.085,1.5.17,2.972.254,4.473a.914.914,0,0,0,.933.878.932.932,0,0,0,.933-.908c0-.309,0-.593.03-.908.055-.962.115-1.925.17-2.887.03-.623.085-1.247.115-1.87a1.54,1.54,0,0,0-.115-.623A1.25,1.25,0,0,0,218.688,157.211Z" transform="translate(-206.867 -150.379)" fill="#e1243f"/>
    </g>
  </g>
</svg>