<svg xmlns="http://www.w3.org/2000/svg" width="19.456" height="19.456" viewBox="0 0 19.456 19.456">
  <g id="Group_61297" data-name="Group 61297" transform="translate(-0.001 0)">
    <path id="Path_153759" data-name="Path 153759" d="M16.606,2.85a9.726,9.726,0,1,0,0,13.754A9.72,9.72,0,0,0,16.606,2.85ZM9.729,17.856a8.128,8.128,0,1,1,8.128-8.128A8.137,8.137,0,0,1,9.729,17.856Z" transform="translate(0 0)" fill="#0023fc"/>
    <path id="Path_153760" data-name="Path 153760" d="M278.189,160.057a.8.8,0,0,0-.8.8v5.681a.8.8,0,0,0,1.6,0v-5.681A.8.8,0,0,0,278.189,160.057Z" transform="translate(-266.837 -153.969)" fill="#0023fc"/>
    <path id="Path_153761" data-name="Path 153761" d="M192.856,160.057a.8.8,0,0,0-.8.8v5.681a.8.8,0,0,0,1.6,0v-5.681A.8.8,0,0,0,192.856,160.057Z" transform="translate(-184.75 -153.969)" fill="#0023fc"/>
  </g>
</svg>
