<svg xmlns="http://www.w3.org/2000/svg" width="20.456" height="20.456" viewBox="0 0 20.456 20.456">
  <path id="Path_153758" data-name="Path 153758" d="M17.46,3A10.228,10.228,0,0,0,3,17.46,10.228,10.228,0,1,0,17.46,3Zm.63,11.5H14.536a21.141,21.141,0,0,0,.4-3.633h4.215A8.885,8.885,0,0,1,18.09,14.5Zm-7.862,4.677c-.958,0-1.981-1.274-2.66-3.4h5.32C12.209,17.9,11.186,19.177,10.228,19.177Zm-3-4.677a19.484,19.484,0,0,1-.43-3.633H13.66a19.484,19.484,0,0,1-.43,3.633ZM1.3,10.867H5.517a21.141,21.141,0,0,0,.4,3.633H2.36A8.874,8.874,0,0,1,1.3,10.867ZM2.366,5.955H5.92a21.149,21.149,0,0,0-.4,3.633H1.3A8.884,8.884,0,0,1,2.366,5.955Zm7.862-4.677c.958,0,1.981,1.274,2.66,3.4H7.568C8.247,2.553,9.27,1.278,10.228,1.278Zm3,4.677a19.484,19.484,0,0,1,.43,3.633H6.8a19.484,19.484,0,0,1,.43-3.633Zm1.708,3.633a21.141,21.141,0,0,0-.4-3.633H18.09a8.884,8.884,0,0,1,1.064,3.633Zm2.3-4.912h-3.02A13,13,0,0,0,13.7,3.2,8.446,8.446,0,0,0,12.88,1.68,8.98,8.98,0,0,1,17.242,4.677Zm-9.667-3A8.449,8.449,0,0,0,6.754,3.2a13,13,0,0,0-.521,1.479H3.213A8.98,8.98,0,0,1,7.576,1.68Zm-4.369,14.1H6.233a13,13,0,0,0,.521,1.479,8.44,8.44,0,0,0,.825,1.522A8.9,8.9,0,0,1,3.9,16.556,9.092,9.092,0,0,1,3.207,15.779Zm9.672,3a8.451,8.451,0,0,0,.822-1.518,13,13,0,0,0,.521-1.479h3.02A8.98,8.98,0,0,1,12.88,18.776Z" fill="#0023fc"/>
</svg>
