<svg xmlns="http://www.w3.org/2000/svg" width="14.187" height="9.532" viewBox="0 0 14.187 9.532">
  <path id="Path_113806" data-name="Path 113806" d="M32.1,101.718a7,7,0,0,1-12.234,0,.521.521,0,0,1,0-.527,7,7,0,0,1,12.234,0A.514.514,0,0,1,32.1,101.718Zm.79-.967a7.9,7.9,0,0,0-13.813,0,1.415,1.415,0,0,0,0,1.407,7.9,7.9,0,0,0,13.813,0A1.415,1.415,0,0,0,32.887,100.751Zm-6.906,2.559a1.855,1.855,0,1,0-1.857-1.855A1.857,1.857,0,0,0,25.982,103.309Zm0-4.615a2.76,2.76,0,1,0,2.759,2.76A2.763,2.763,0,0,0,25.982,98.694Z" transform="translate(-18.887 -96.688)" fill-rule="evenodd"/>
</svg>
