<svg xmlns="http://www.w3.org/2000/svg" width="17.347" height="19.221" viewBox="0 0 17.347 19.221">
  <g id="Layer_3" transform="translate(-2.552 -1.1)">
    <path id="Path_32" data-name="Path 32" d="M17.049,6.577H8.657a.581.581,0,0,0,0,1.161h8.393a.581.581,0,1,0,0-1.161Z" transform="translate(-1.961 -1.944)" fill="#0023fc"/>
    <path id="Path_33" data-name="Path 33" d="M17.629,12.232a.581.581,0,0,0-.581-.581H8.657a.581.581,0,1,0,0,1.161h8.393A.58.58,0,0,0,17.629,12.232Z" transform="translate(-1.961 -3.746)" fill="#0023fc"/>
    <path id="Path_34" data-name="Path 34" d="M8.657,16.726a.581.581,0,1,0,0,1.161h4.227a.581.581,0,1,0,0-1.161Z" transform="translate(-1.961 -5.547)" fill="#0023fc"/>
    <path id="Path_35" data-name="Path 35" d="M8.2,19.16H4.611a.9.9,0,0,1-.9-.9V3.159a.9.9,0,0,1,.9-.9H17.173a.9.9,0,0,1,.9.9V8.67a.581.581,0,1,0,1.161,0V3.159A2.061,2.061,0,0,0,17.174,1.1H4.611A2.061,2.061,0,0,0,2.552,3.159v15.1a2.061,2.061,0,0,0,2.059,2.059H8.2a.581.581,0,1,0,0-1.161Z" transform="translate(0)" fill="#0023fc"/>
    <path id="Path_36" data-name="Path 36" d="M23.5,16.566a2.163,2.163,0,0,0-3.056,0L15.109,21.9a1.141,1.141,0,0,0-.32.619L14.5,24.253a1.144,1.144,0,0,0,1.128,1.335,1.107,1.107,0,0,0,.19-.016l1.729-.292a1.133,1.133,0,0,0,.62-.319L23.5,19.622a2.163,2.163,0,0,0,0-3.056Zm-6.149,7.568-1.711.312.287-1.722,3.841-3.841L21.185,20.3ZM22.681,18.8l-.675.676-1.415-1.415.676-.676A1,1,0,1,1,22.681,18.8Z" transform="translate(-4.235 -5.266)" fill="#0023fc"/>
  </g>
</svg>
