<svg xmlns="http://www.w3.org/2000/svg" width="23.059" height="19.456" viewBox="0 0 23.059 19.456">
  <g id="Index" transform="translate(0 -40)">
    <g id="Group_61298" data-name="Group 61298" transform="translate(0 40)">
      <path id="Path_153762" data-name="Path 153762" d="M175.589,134.315l-4.236-4.236a6.311,6.311,0,1,0-1.274,1.274l4.236,4.236a.9.9,0,0,0,1.274-1.274Zm-13.788-8.01a4.5,4.5,0,1,1,4.5,4.5A4.509,4.509,0,0,1,161.8,126.305Z" transform="translate(-152.794 -116.397)" fill="#0023fc"/>
      <path id="Path_153763" data-name="Path 153763" d="M.9,41.8H15.312a.9.9,0,0,0,0-1.8H.9a.9.9,0,0,0,0,1.8Z" transform="translate(0 -40)" fill="#0023fc"/>
      <path id="Path_153764" data-name="Path 153764" d="M5.256,160H.9a.9.9,0,0,0,0,1.8H5.256a.9.9,0,0,0,0-1.8Z" transform="translate(0 -154.596)" fill="#0023fc"/>
      <path id="Path_153765" data-name="Path 153765" d="M4.685,280H.9a.9.9,0,1,0,0,1.8H4.685a.9.9,0,1,0,0-1.8Z" transform="translate(0 -269.191)" fill="#0023fc"/>
    </g>
    <g id="Group_61299" data-name="Group 61299" transform="translate(0 56.213)">
      <path id="Path_153766" data-name="Path 153766" d="M8.113,401.8H.9a.9.9,0,1,1,0-1.8H8.113a.9.9,0,1,1,0,1.8Z" transform="translate(0 -400)" fill="#0023fc"/>
    </g>
  </g>
</svg>
