<svg xmlns="http://www.w3.org/2000/svg" width="11.178" height="11.896" viewBox="0 0 11.178 11.896">
  <g id="refresh" transform="translate(-3.547 -3)">
    <path id="Path_113381" data-name="Path 113381" d="M14.16,9.369a.655.655,0,0,0-.75.558,4.232,4.232,0,0,1-1.21,2.392A4.3,4.3,0,0,1,6.125,6.243,4.24,4.24,0,0,1,8.44,5.053a4.09,4.09,0,0,1,1.221-.037,4.24,4.24,0,0,1,1.63.548l-.861.147a.661.661,0,0,0,.111,1.313.668.668,0,0,0,.112-.009l2.307-.394a.661.661,0,0,0,.54-.763l-.4-2.307a.661.661,0,1,0-1.3.223l.1.607a5.568,5.568,0,0,0-2.1-.677,5.356,5.356,0,0,0-1.605.049A5.539,5.539,0,0,0,5.19,5.308a5.618,5.618,0,0,0,7.945,7.945,5.547,5.547,0,0,0,1.583-3.134.661.661,0,0,0-.558-.75Z" transform="translate(0)" fill="#c8001f"/>
  </g>
</svg>
