<svg xmlns="http://www.w3.org/2000/svg" width="16.866" height="19.679" viewBox="0 0 16.866 19.679">
  <g id="Group_60606" data-name="Group 60606" transform="translate(-8.011 -3.999)">
    <path id="path3683" d="M10.119,4a2.109,2.109,0,0,0-2.108,2.11V21.568a2.109,2.109,0,0,0,2.108,2.11H22.769a2.1,2.1,0,0,0,2.108-2.11V6.109A2.1,2.1,0,0,0,22.769,4H10.119Zm0,1.407H22.769a.7.7,0,0,1,.7.7V21.568a.7.7,0,0,1-.7.7H10.119a.7.7,0,0,1-.7-.7V6.109a.7.7,0,0,1,.7-.7Z" transform="translate(0 0)" fill="#0023fc" fill-rule="evenodd"/>
    <path id="path3679" d="M23.713,18a.706.706,0,0,0-.7.7h0a.706.706,0,0,0,.7.7h4.92a.706.706,0,0,0,.7-.7h0a.706.706,0,0,0-.7-.7Z" transform="translate(-9.729 -9.085)" fill="#0023fc" fill-rule="evenodd"/>
    <path id="path3675" d="M23.713,30h0a.706.706,0,0,0-.7.7h0a.706.706,0,0,0,.7.7h4.92a.706.706,0,0,0,.7-.7h0a.706.706,0,0,0-.7-.7H23.713Z" transform="translate(-9.729 -16.865)" fill="#0023fc" fill-rule="evenodd"/>
    <path id="path3671" d="M23.713,42h0a.706.706,0,0,0-.7.7h0a.706.706,0,0,0,.7.7h4.918a.706.706,0,0,0,.7-.7h0a.706.706,0,0,0-.7-.7H23.713Z" transform="translate(-9.729 -24.651)" fill="#0023fc" fill-rule="evenodd"/>
  </g>
</svg>
