<svg xmlns="http://www.w3.org/2000/svg" width="9.833" height="10.211" viewBox="0 0 9.833 10.211">
  <g id="Group_50596" data-name="Group 50596" transform="translate(-5.988)">
    <g id="Group_50587" data-name="Group 50587" transform="translate(5.988 0)">
      <path id="Path_132464" data-name="Path 132464" d="M7.342,10.211h7.125a1.355,1.355,0,0,0,1.354-1.354V2.11A1.355,1.355,0,0,0,14.467.756H13.93V.378a.378.378,0,0,0-.756,0V.756H8.635V.378a.378.378,0,0,0-.756,0V.756H7.342A1.355,1.355,0,0,0,5.988,2.11V8.857a1.355,1.355,0,0,0,1.354,1.354Zm-.6-8.1a.6.6,0,0,1,.6-.6h.537v.378a.378.378,0,0,0,.756,0V1.513h4.538v.378a.378.378,0,0,0,.756,0V1.513h.537a.6.6,0,0,1,.6.6v1.1H6.744Zm0,1.861h8.32V8.857a.6.6,0,0,1-.6.6H7.342a.6.6,0,0,1-.6-.6Z" transform="translate(-5.988 0)" fill="#bababa"/>
    </g>
  </g>
</svg>
