<svg xmlns="http://www.w3.org/2000/svg" width="10" height="10" viewBox="0 0 10 10">
  <g id="Layer_22" data-name="Layer 22" transform="translate(-2.001 -2)">
    <path id="Path_113549" data-name="Path 113549" d="M8.787,5.736,7.5,7,8.787,8.265a.362.362,0,1,1-.5.521L7,7.5,5.737,8.786a.356.356,0,0,1-.5-.5L6.5,7,5.233,5.736a.357.357,0,0,1,.5-.5L7,6.5,8.265,5.232a.362.362,0,1,1,.521.5Zm1.75,4.8a5,5,0,1,1,0-7.072A5,5,0,0,1,10.537,10.536Zm-.5-6.568A4.286,4.286,0,1,0,11.294,7a4.286,4.286,0,0,0-1.261-3.036Z" transform="translate(0 0)" fill="red"/>
  </g>
</svg>