<svg xmlns="http://www.w3.org/2000/svg" width="13.116" height="13.116" viewBox="0 0 13.116 13.116">
  <g id="Group_61305" data-name="Group 61305" transform="translate(-609.001 -347)">
    <path id="chat-info" d="M3.428,15.325a1.181,1.181,0,0,1-1.117-1.549L2.876,12.1a.793.793,0,0,0-.018-.576,6.558,6.558,0,1,1,3.2,3.2.8.8,0,0,0-.587-.017L3.8,15.265a1.188,1.188,0,0,1-.374.06ZM8.8,3.243a5.528,5.528,0,0,0-5.029,7.848,1.8,1.8,0,0,1,.063,1.318L3.266,14.1a.161.161,0,0,0,.043.171.164.164,0,0,0,.173.043l1.678-.563a1.8,1.8,0,0,1,1.33.063,5.535,5.535,0,1,0,2.3-10.566Zm.681,3.525A.671.671,0,0,0,8.808,6.1H8.8a.671.671,0,1,0,.678.671ZM9.3,10.795V8.781a.5.5,0,0,0-1.007,0v2.014a.5.5,0,0,0,1.007,0Z" transform="translate(606.75 344.79)"/>
  </g>
</svg>
