<svg xmlns="http://www.w3.org/2000/svg" width="3.743" height="13.971" viewBox="0 0 3.743 13.971">
  <path id="Union_152" data-name="Union 152" d="M-3995-2330.377a1.813,1.813,0,0,1,1.871-1.746,1.812,1.812,0,0,1,1.872,1.746,1.812,1.812,0,0,1-1.872,1.747A1.813,1.813,0,0,1-3995-2330.377Zm0-5.239a1.813,1.813,0,0,1,1.871-1.746,1.812,1.812,0,0,1,1.872,1.746,1.812,1.812,0,0,1-1.872,1.746A1.812,1.812,0,0,1-3995-2335.615Zm0-5.239a1.813,1.813,0,0,1,1.871-1.747,1.812,1.812,0,0,1,1.872,1.747,1.812,1.812,0,0,1-1.872,1.746A1.813,1.813,0,0,1-3995-2340.854Z" transform="translate(3995 2342.601)"/>
</svg>