<svg xmlns="http://www.w3.org/2000/svg" xmlns:xlink="http://www.w3.org/1999/xlink" width="124.897" height="114.185" viewBox="0 0 124.897 114.185">
  <defs>
    <clipPath id="clip-path">
      <rect id="Rectangle_49" data-name="Rectangle 49" width="124.897" height="114.185" fill="none"/>
    </clipPath>
    <clipPath id="clip-path-3">
      <rect id="Rectangle_47" data-name="Rectangle 47" width="62.533" height="48.891" fill="#8ba595"/>
    </clipPath>
  </defs>
  <g id="Group_39805" data-name="Group 39805" opacity="0.558">
    <g id="Group_34379" data-name="Group 34379" clip-path="url(#clip-path)">
      <g id="Group_34378" data-name="Group 34378">
        <g id="Group_34377" data-name="Group 34377" clip-path="url(#clip-path)">
          <path id="Path_113402" data-name="Path 113402" d="M124.9,353.924c0,4.759-27.959,8.617-62.448,8.617S0,358.684,0,353.924s27.959-8.617,62.448-8.617,62.448,3.858,62.448,8.617" transform="translate(0 -248.356)" fill="#fbecfe"/>
          <path id="Path_113403" data-name="Path 113403" d="M173.668,240.194H110.494a3.625,3.625,0,0,1-3.66-4.433l7.4-42.367a5.506,5.506,0,0,1,5.207-4.433h63.175a3.625,3.625,0,0,1,3.659,4.433l-7.4,42.367a5.506,5.506,0,0,1-5.207,4.433" transform="translate(-76.79 -135.907)" fill="#f7f7f7"/>
          <path id="Path_113404" data-name="Path 113404" d="M138.22,69.008,82.5,86.825A142.12,142.12,0,0,0,76.38,52.386,142.156,142.156,0,0,0,60.51,18.05L116.228.233a276.962,276.962,0,0,1,13.359,34.021,276.944,276.944,0,0,1,8.633,34.755" transform="translate(-43.521 -0.168)" fill="#f8e0ff"/>
          <path id="Path_113405" data-name="Path 113405" d="M174.017,70.077c-2.7-5.6-9.064-8.118-14.213-5.632s-7.134,9.036-4.434,14.631,9.064,8.118,14.213,5.632,7.134-9.036,4.434-14.631m-5.33,12.773c-4.2,2.029-9.4-.03-11.607-4.6S156.5,68.332,160.7,66.3s9.4.03,11.607,4.6.585,9.919-3.62,11.948" transform="translate(-110.88 -45.662)" fill="#6e0d88" opacity="0.283"/>
          <path id="Path_113406" data-name="Path 113406" d="M170.064,70.342l-2.6,7.427-7.427-2.6-.87,2.488,7.427,2.6L164,87.685l2.488.87,2.6-7.427,7.427,2.6.87-2.488-7.427-2.6,2.6-7.427Z" transform="translate(-114.479 -50.593)" fill="#6e0d88" opacity="0.283"/>
          <path id="Path_113407" data-name="Path 113407" d="M138.22,69.008,82.5,86.825A142.12,142.12,0,0,0,76.38,52.386,142.156,142.156,0,0,0,60.51,18.05L116.228.233a276.962,276.962,0,0,1,13.359,34.021A276.944,276.944,0,0,1,138.22,69.008Z" transform="translate(-43.521 -0.168)" fill="none" stroke="#8ba595" stroke-linecap="round" stroke-linejoin="round" stroke-width="0.466"/>
          <g id="Group_34376" data-name="Group 34376" transform="translate(32.167 37.767)" opacity="0.266">
            <g id="Group_34375" data-name="Group 34375">
              <g id="Group_34374" data-name="Group 34374" clip-path="url(#clip-path-3)">
                <path id="Path_113408" data-name="Path 113408" d="M114.568,146.809h24.207l6.766-11.54a1.532,1.532,0,0,1,1.321-.757h22.749c1.371,4.564,2.693,9.374,3.928,14.421,1.416,5.783,2.589,11.346,3.561,16.653L121.382,183.4A139.124,139.124,0,0,0,119.4,165.93a139.1,139.1,0,0,0-4.828-19.121" transform="translate(-114.568 -134.513)" fill="#8ba595"/>
              </g>
            </g>
          </g>
          <path id="Path_113409" data-name="Path 113409" d="M118.983,150.131l-4.915,9.5H81.418a3.694,3.694,0,0,0-3.736,4.433l6.657,42.367a5.386,5.386,0,0,0,5.13,4.433h63.175a3.7,3.7,0,0,0,3.736-4.433l-7.354-46.8-1.1-7.018a5.386,5.386,0,0,0-5.13-4.433H122.351a3.693,3.693,0,0,0-3.368,1.954" transform="translate(-55.832 -106.574)" fill="#bfb2c3"/>
          <path id="Path_113410" data-name="Path 113410" d="M168.81,257.226a2.5,2.5,0,0,1-2.521,3.054,3.794,3.794,0,0,1-3.588-3.054,2.5,2.5,0,0,1,2.521-3.055,3.794,3.794,0,0,1,3.588,3.055" transform="translate(-116.986 -182.809)" fill="#fbecfe" opacity="0.361"/>
          <path id="Path_113411" data-name="Path 113411" d="M233.91,257a2.5,2.5,0,0,1-2.521,3.054A3.794,3.794,0,0,1,227.8,257a2.5,2.5,0,0,1,2.521-3.054A3.794,3.794,0,0,1,233.91,257" transform="translate(-163.808 -182.644)" fill="#fbecfe" opacity="0.361"/>
          <path id="Path_113412" data-name="Path 113412" d="M185.855,289.66a4.819,4.819,0,0,1,4.592-2.9,7.27,7.27,0,0,1,5.6,2.9h3.7a11.425,11.425,0,0,0-9.946-6.555,7.4,7.4,0,0,0-7.656,6.555Z" transform="translate(-131.01 -203.618)" fill="#fbecfe" opacity="0.361"/>
          <path id="Path_113413" data-name="Path 113413" d="M118.983,150.131l-4.915,9.5H81.418a3.694,3.694,0,0,0-3.736,4.433l6.657,42.367a5.386,5.386,0,0,0,5.13,4.433h63.175a3.7,3.7,0,0,0,3.736-4.433l-7.354-46.8-1.1-7.018a5.386,5.386,0,0,0-5.13-4.433H122.351A3.693,3.693,0,0,0,118.983,150.131Z" transform="translate(-55.832 -106.574)" fill="none" stroke="#d6f2e1" stroke-linecap="round" stroke-linejoin="round" stroke-width="0.466"/>
          <path id="Path_113414" data-name="Path 113414" d="M305.207,21.788l1.613-.931a7.251,7.251,0,0,0-.744-1.787l-1.8.481L302.934,18.2l.48-1.79a7.269,7.269,0,0,0-1.791-.74l-.926,1.6h-1.9l-.921-1.6a7.254,7.254,0,0,0-1.791.748l.475,1.774-1.346,1.346-1.767-.473a7.272,7.272,0,0,0-.744,1.8l1.585.915v1.9l-1.584.914a7.226,7.226,0,0,0,.744,1.8l1.766-.473,1.346,1.346-.475,1.772a7.265,7.265,0,0,0,1.792.748l.92-1.594h1.9l.925,1.6a7.253,7.253,0,0,0,1.792-.74l-.479-1.788,1.346-1.346,1.8.481a7.239,7.239,0,0,0,.744-1.787l-1.612-.931Zm-5.448,4.9a3.949,3.949,0,1,1,3.949-3.949,3.949,3.949,0,0,1-3.949,3.949" transform="translate(-210.518 -11.273)" fill="#e1003e" opacity="0.283"/>
          <path id="Path_113415" data-name="Path 113415" d="M335.721,65.365l1.125-.65a5.066,5.066,0,0,0-.519-1.247l-1.253.336-.939-.939.335-1.249a5.058,5.058,0,0,0-1.25-.516l-.646,1.118h-1.328l-.642-1.113a5.06,5.06,0,0,0-1.25.522l.332,1.238-.939.939-1.233-.33A5.059,5.059,0,0,0,327,64.726l1.105.638v1.328l-1.1.638a5.047,5.047,0,0,0,.519,1.253l1.232-.33.939.939-.331,1.236a5.072,5.072,0,0,0,1.25.522l.642-1.112h1.328l.645,1.117a5.061,5.061,0,0,0,1.25-.516l-.334-1.248.939-.939,1.252.336a5.054,5.054,0,0,0,.519-1.247l-1.125-.649Zm-3.8,3.417a2.754,2.754,0,1,1,2.754-2.754,2.754,2.754,0,0,1-2.754,2.754" transform="translate(-235.186 -43.945)" fill="#e1003e" opacity="0.283"/>
          <path id="Path_113416" data-name="Path 113416" d="M102.363,251.008a1.264,1.264,0,0,1-1.239-1.024l-5.917-30.547a1.263,1.263,0,1,1,2.481-.48L103.6,249.5a1.265,1.265,0,0,1-1.242,1.5" transform="translate(-68.459 -156.744)" fill="#fbecfe" opacity="0.36"/>
        </g>
      </g>
    </g>
  </g>
</svg>