<svg xmlns="http://www.w3.org/2000/svg" width="14.235" height="14.235" viewBox="0 0 14.235 14.235">
  <path id="chat-info" d="M3.529,16.443a1.282,1.282,0,0,1-1.212-1.681l.613-1.821a.86.86,0,0,0-.02-.625,7.117,7.117,0,1,1,3.475,3.473.866.866,0,0,0-.637-.019l-1.813.609a1.289,1.289,0,0,1-.406.065ZM9.356,3.331A6,6,0,0,0,3.9,11.849a1.952,1.952,0,0,1,.068,1.43l-.614,1.83a.175.175,0,0,0,.047.186.178.178,0,0,0,.187.047l1.821-.611a1.951,1.951,0,0,1,1.444.068,6.007,6.007,0,1,0,2.5-11.466ZM10.1,7.156a.728.728,0,0,0-.728-.728H9.36a.728.728,0,1,0,.736.728Zm-.2,4.371V9.341a.546.546,0,0,0-1.093,0v2.185a.546.546,0,1,0,1.093,0Z" transform="translate(-2.251 -2.21)"/>
</svg>