<svg xmlns="http://www.w3.org/2000/svg" width="6.851" height="5.023" viewBox="0 0 6.851 5.023">
  <g id="Group_61230" data-name="Group 61230" transform="translate(0 -64.013)">
    <g id="Group_61231" data-name="Group 61231" transform="translate(2.968 64.013)">
      <g id="Group_61230-2" data-name="Group 61230" transform="translate(0 0)">
        <path id="Path_153742" data-name="Path 153742" d="M211.824,66.372l-2.055-2.283a.229.229,0,0,0-.17-.076h-1.37a.228.228,0,0,0-.17.381l1.918,2.131-1.918,2.13a.229.229,0,0,0,.17.381h1.37a.231.231,0,0,0,.17-.075l2.055-2.283A.228.228,0,0,0,211.824,66.372Z" transform="translate(-208 -64.013)" fill="#c81e1f"/>
      </g>
    </g>
    <g id="Group_61233" data-name="Group 61233" transform="translate(0 64.013)">
      <g id="Group_61232" data-name="Group 61232" transform="translate(0 0)">
        <path id="Path_153743" data-name="Path 153743" d="M3.824,66.372,1.769,64.089a.229.229,0,0,0-.17-.076H.229a.228.228,0,0,0-.17.381l1.918,2.131L.059,68.655a.229.229,0,0,0,.17.381H1.6a.231.231,0,0,0,.17-.075l2.055-2.283A.228.228,0,0,0,3.824,66.372Z" transform="translate(0 -64.013)" fill="#c81e1f"/>
      </g>
    </g>
  </g>
</svg>
