<svg xmlns="http://www.w3.org/2000/svg" width="13" height="12" viewBox="0 0 13.899 12.907">
<path id="Path_103543" data-name="Path 103543" d="M13.417,3H4.482A2.458,2.458,0,0,0,2,5.482v4.964a2.458,2.458,0,0,0,2.482,2.482.469.469,0,0,1,.5.5V15.41a.477.477,0,0,0,.3.447c.05.05.1.05.2.05a.706.706,0,0,0,.3-.1L9.2,13.226a1.487,1.487,0,0,1,.894-.3h3.326A2.458,2.458,0,0,0,15.9,10.446V5.482A2.458,2.458,0,0,0,13.417,3Zm1.489,7.446a1.463,1.463,0,0,1-1.489,1.489H10.091a2.675,2.675,0,0,0-1.489.5L5.971,14.417v-.993a1.463,1.463,0,0,0-1.489-1.489,1.463,1.463,0,0,1-1.489-1.489V5.482A1.463,1.463,0,0,1,4.482,3.993h8.935a1.463,1.463,0,0,1,1.489,1.489ZM12.921,6.475a.469.469,0,0,1-.5.5H5.475a.5.5,0,0,1,0-.993h6.95A.469.469,0,0,1,12.921,6.475Zm0,2.978a.469.469,0,0,1-.5.5H5.475a.5.5,0,0,1,0-.993h6.95A.469.469,0,0,1,12.921,9.453Z" transform="translate(-2 -3)" fill="#0023FC"></path>
</svg>