<svg xmlns="http://www.w3.org/2000/svg" width="20" height="16" viewBox="0 0 17.793 11.955">
<path id="Path_103485" data-name="Path 103485" d="M35.455,103a8.777,8.777,0,0,1-15.343,0,.654.654,0,0,1,0-.661,8.777,8.777,0,0,1,15.343,0A.644.644,0,0,1,35.455,103Zm.99-1.213a9.91,9.91,0,0,0-17.324,0,1.775,1.775,0,0,0,0,1.764,9.91,9.91,0,0,0,17.324,0A1.775,1.775,0,0,0,36.445,101.783Zm-8.661,3.209a2.327,2.327,0,1,0-2.328-2.327A2.329,2.329,0,0,0,27.785,104.992Zm0-5.788a3.461,3.461,0,1,0,3.461,3.461A3.465,3.465,0,0,0,27.785,99.2Z" transform="translate(-18.887 -96.688)" fill="#a2a2a2" fill-rule="evenodd"></path>
</svg>