<svg xmlns="http://www.w3.org/2000/svg" width="21.225" height="21.225" viewBox="0 0 21.225 21.225">
  <path id="Path_131424" data-name="Path 131424" d="M18.117,3.108A10.613,10.613,0,0,0,3.108,18.117,10.613,10.613,0,0,0,18.117,3.108ZM4.606,17.8a6.072,6.072,0,0,1,6.007-5.343A6.049,6.049,0,0,1,16.619,17.8a9.349,9.349,0,0,1-12.013,0Zm6.007-6.624a3.223,3.223,0,1,1,3.223-3.223A3.227,3.227,0,0,1,10.613,11.173Zm7.077,5.573a7.311,7.311,0,0,0-4.576-5.1,4.467,4.467,0,1,0-5,0,7.3,7.3,0,0,0-4.579,5.094,9.369,9.369,0,1,1,14.155,0Zm0,0" fill="#0023FC"/>
</svg>
