<svg xmlns="http://www.w3.org/2000/svg" width="19" height="20" viewBox="0 0 19.395 20.973">
<g id="Group_23279" data-name="Group 23279" transform="translate(-15.937)">
<g id="Group_23280" data-name="Group 23280" transform="translate(15.937)">
<g id="Group_23279-2" data-name="Group 23279">
<circle id="Ellipse_1862" data-name="Ellipse 1862" cx="1" cy="1" r="1" transform="translate(9.75 12.973)" fill="#0023FC"></circle>
<path id="Path_103674" data-name="Path 103674" d="M29.227,19.067H19.169a1.618,1.618,0,0,1-1.616-1.616V10.826A1.618,1.618,0,0,1,19.169,9.21H30.8a1.645,1.645,0,0,1,.446.05.808.808,0,1,0,.445-1.553,3.21,3.21,0,0,0-.891-.112h-.971V4.745a4.849,4.849,0,0,0-9.695,0V7.594h-.968a3.235,3.235,0,0,0-3.232,3.232v6.625a3.235,3.235,0,0,0,3.232,3.232H29.227a.808.808,0,0,0,0-1.616ZM21.752,4.745a3.233,3.233,0,0,1,6.463,0V7.594H21.752Z" transform="translate(-15.937)" fill="#0023FC"></path>
<circle id="Ellipse_1863" data-name="Ellipse 1863" cx="1" cy="1" r="1" transform="translate(6.75 12.973)" fill="#0023FC"></circle>
<path id="Path_103675" data-name="Path 103675" d="M359.738,263.836a2.869,2.869,0,0,0-5.738.033.808.808,0,0,0,1.616,0,1.253,1.253,0,0,1,2.507,0c0,.007,0,.015,0,.022a1.253,1.253,0,0,1-.762,1.132,2.149,2.149,0,0,0-1.3,1.983v.7a.808.808,0,0,0,1.616,0v-.7a.535.535,0,0,1,.318-.5,2.867,2.867,0,0,0,1.744-2.641C359.739,263.858,359.738,263.847,359.738,263.836Z" transform="translate(-340.344 -250.457)" fill="#0023FC"></path>
<circle id="Ellipse_1864" data-name="Ellipse 1864" cx="1" cy="1" r="1" transform="translate(15.75 18.973)" fill="#0023FC"></circle>
<circle id="Ellipse_1865" data-name="Ellipse 1865" cx="1" cy="1" r="1" transform="translate(3.75 12.973)" fill="#0023FC"></circle>
</g>
</g>
</g>
</svg>




