<svg xmlns="http://www.w3.org/2000/svg" width="14" height="14" viewBox="0 0 14.892 14.914">
<g id="Group_23206" data-name="Group 23206" transform="translate(-0.195 0.151)">
<g id="Group_23206-2" data-name="Group 23206" transform="translate(0.344 0)">
<path id="Path_103544" data-name="Path 103544" d="M11.883,35.613a1.437,1.437,0,0,0-1.042-.478,1.486,1.486,0,0,0-1.055.475l-.975.972c-.08-.043-.16-.083-.237-.123-.111-.056-.216-.108-.305-.163A10.593,10.593,0,0,1,5.73,33.982,6.249,6.249,0,0,1,4.9,32.668c.253-.231.487-.472.716-.7.086-.086.173-.176.259-.262a1.415,1.415,0,0,0,0-2.134l-.842-.842c-.1-.1-.194-.194-.287-.293-.185-.191-.379-.389-.58-.574a1.46,1.46,0,0,0-1.033-.453,1.511,1.511,0,0,0-1.049.453l-.006.006L1.026,28.923a2.256,2.256,0,0,0-.669,1.434,5.407,5.407,0,0,0,.395,2.288,13.28,13.28,0,0,0,2.359,3.935,14.514,14.514,0,0,0,4.833,3.784,7.53,7.53,0,0,0,2.714.8c.065,0,.133.006.194.006a2.324,2.324,0,0,0,1.78-.765c0-.006.009-.009.012-.015a7.013,7.013,0,0,1,.54-.558c.133-.126.268-.259.4-.4a1.539,1.539,0,0,0,.466-1.067,1.482,1.482,0,0,0-.475-1.058Zm1.1,3.248s0,0,0,0c-.12.13-.244.247-.376.376a8.109,8.109,0,0,0-.6.617,1.487,1.487,0,0,1-1.16.49c-.046,0-.1,0-.142,0a6.689,6.689,0,0,1-2.406-.722,13.7,13.7,0,0,1-4.552-3.565,12.521,12.521,0,0,1-2.221-3.7,4.4,4.4,0,0,1-.345-1.931,1.416,1.416,0,0,1,.426-.916l1.052-1.052a.7.7,0,0,1,.469-.219.66.66,0,0,1,.45.216l.009.009c.188.176.367.358.555.552.1.1.194.2.293.3l.842.842a.589.589,0,0,1,0,.956c-.089.089-.176.179-.265.265-.259.265-.506.512-.774.753-.006.006-.012.009-.015.015a.629.629,0,0,0-.16.7l.009.028a6.76,6.76,0,0,0,1,1.625l0,0a11.32,11.32,0,0,0,2.739,2.492A4.211,4.211,0,0,0,8.2,37.2c.111.056.216.108.305.163.012.006.025.015.037.022a.669.669,0,0,0,.305.077.659.659,0,0,0,.469-.213L10.369,36.2a.7.7,0,0,1,.466-.231.628.628,0,0,1,.444.225l.006.006,1.7,1.7A.61.61,0,0,1,12.987,38.861Z" transform="translate(-0.344 -26.561)" stroke="#0023FC" stroke-width="0.3"></path>
<path id="Path_103545" data-name="Path 103545" d="M245.286,86.751a3.969,3.969,0,0,1,3.232,3.232.414.414,0,0,0,.41.345.551.551,0,0,0,.071-.006.417.417,0,0,0,.342-.481,4.8,4.8,0,0,0-3.911-3.911.419.419,0,0,0-.481.339A.412.412,0,0,0,245.286,86.751Z" transform="translate(-237.4 -83.275)" stroke="#0023FC" stroke-width="0.3"></path>
<path id="Path_103546" data-name="Path 103546" d="M255.7,6.446a7.9,7.9,0,0,0-6.44-6.44.416.416,0,1,0-.136.82,7.059,7.059,0,0,1,5.755,5.755.414.414,0,0,0,.41.345.551.551,0,0,0,.071-.006A.409.409,0,0,0,255.7,6.446Z" transform="translate(-241.113 0)" stroke="#0023FC" stroke-width="0.3"></path>
</g>
</g>
</svg>